solid quiesce
facet normal 1.0 -0.0 -0.0
  outer loop
    vertex 61.6 33.5 0.0
    vertex 61.6 0.0 3.9999999999999996
    vertex 61.6 0.0 0.0
  endloop
endfacet
facet normal 1.0 -0.0 -0.0
  outer loop
    vertex 61.6 0.0 3.9999999999999996
    vertex 61.6 33.5 0.0
    vertex 61.6 33.5 3.9999999999999996
  endloop
endfacet
facet normal 1.0 0.0 0.0
  outer loop
    vertex 25.599999999999998 31.5 7.049916206369744e-15
    vertex 25.599999999999998 2.0000000000000018 1.4999999999999998
    vertex 25.599999999999998 2.0000000000000018 7.049916206369744e-15
  endloop
endfacet
facet normal 1.0 0.0 0.0
  outer loop
    vertex 25.599999999999998 2.0000000000000018 1.4999999999999998
    vertex 25.599999999999998 31.5 7.049916206369744e-15
    vertex 25.599999999999998 31.5 1.4999999999999998
  endloop
endfacet
facet normal -1.0 0.0 0.0
  outer loop
    vertex 42.5 31.500000000000004 1.4999999999999998
    vertex 42.5 2.0000000000000018 7.049916206369744e-15
    vertex 42.5 2.0000000000000018 1.4999999999999998
  endloop
endfacet
facet normal -1.0 0.0 0.0
  outer loop
    vertex 42.5 2.0000000000000018 7.049916206369744e-15
    vertex 42.5 31.500000000000004 1.4999999999999998
    vertex 42.5 31.500000000000004 7.049916206369744e-15
  endloop
endfacet
facet normal -0.0 -0.0 1.0
  outer loop
    vertex 48.650000000000006 1.9999999999999998 1.4999999999999998
    vertex 42.5 31.500000000000004 1.4999999999999998
    vertex 42.5 2.0000000000000018 1.4999999999999998
  endloop
endfacet
facet normal -0.0 -0.0 1.0
  outer loop
    vertex 42.5 31.500000000000004 1.4999999999999998
    vertex 48.650000000000006 1.9999999999999998 1.4999999999999998
    vertex 48.650000000000006 31.500000000000004 1.4999999999999998
  endloop
endfacet
facet normal 0.0 -1.0 0.0
  outer loop
    vertex 48.650000000000006 31.500000000000004 1.4999999999999998
    vertex 49.650000000000006 31.500000000000004 2.114974861910923e-15
    vertex 49.650000000000006 31.500000000000004 1.000000000000002
  endloop
endfacet
facet normal 0.4472135954999569 -0.0 0.8944271909999164
  outer loop
    vertex 49.650000000000006 1.9999999999999998 1.000000000000002
    vertex 48.650000000000006 31.500000000000004 1.4999999999999998
    vertex 48.650000000000006 1.9999999999999998 1.4999999999999998
  endloop
endfacet
facet normal 0.4472135954999569 -0.0 0.8944271909999164
  outer loop
    vertex 48.650000000000006 31.500000000000004 1.4999999999999998
    vertex 49.650000000000006 1.9999999999999998 1.000000000000002
    vertex 49.650000000000006 31.500000000000004 1.000000000000002
  endloop
endfacet
facet normal 1.0 -0.0 -0.0
  outer loop
    vertex 49.650000000000006 31.500000000000004 2.114974861910923e-15
    vertex 49.650000000000006 1.9999999999999998 1.000000000000002
    vertex 49.650000000000006 1.9999999999999996 2.114974861910923e-15
  endloop
endfacet
facet normal 1.0 -0.0 -0.0
  outer loop
    vertex 49.650000000000006 1.9999999999999998 1.000000000000002
    vertex 49.650000000000006 31.500000000000004 2.114974861910923e-15
    vertex 49.650000000000006 31.500000000000004 1.000000000000002
  endloop
endfacet
facet normal -0.8320502943378438 0.0 -0.5547001962252291
  outer loop
    vertex 48.650000000000006 1.9999999999999998 1.4999999999999998
    vertex 49.650000000000006 31.500000000000004 2.114974861910923e-15
    vertex 49.650000000000006 1.9999999999999996 2.114974861910923e-15
  endloop
endfacet
facet normal -0.8320502943378438 0.0 -0.5547001962252291
  outer loop
    vertex 49.650000000000006 31.500000000000004 2.114974861910923e-15
    vertex 48.650000000000006 1.9999999999999998 1.4999999999999998
    vertex 48.650000000000006 31.500000000000004 1.4999999999999998
  endloop
endfacet
facet normal 0.0 0.0 -1.0
  outer loop
    vertex 25.599999999999998 31.5 1.4999999999999998
    vertex 18.7 2.0000000000000018 1.4999999999999998
    vertex 18.7 31.5 1.4999999999999998
  endloop
endfacet
facet normal 0.0 0.0 -1.0
  outer loop
    vertex 18.7 2.0000000000000018 1.4999999999999998
    vertex 25.599999999999998 31.5 1.4999999999999998
    vertex 25.599999999999998 2.0000000000000018 1.4999999999999998
  endloop
endfacet
facet normal -1.0 0.0 0.0
  outer loop
    vertex 18.7 31.5 1.4999999999999998
    vertex 18.7 2.0000000000000018 -4.229949723821846e-15
    vertex 18.7 2.0000000000000018 1.4999999999999998
  endloop
endfacet
facet normal -1.0 0.0 0.0
  outer loop
    vertex 18.7 2.0000000000000018 -4.229949723821846e-15
    vertex 18.7 31.5 1.4999999999999998
    vertex 18.7 31.5 -4.229949723821846e-15
  endloop
endfacet
facet normal -0.0 -0.0 1.0
  outer loop
    vertex 59.6 0.0 3.9999999999999996
    vertex 7.599999999999997 1.9999999999999998 3.9999999999999996
    vertex 7.599999999999997 0.0 3.9999999999999996
  endloop
endfacet
facet normal -0.0 -0.0 1.0
  outer loop
    vertex 7.599999999999997 1.9999999999999998 3.9999999999999996
    vertex 59.6 0.0 3.9999999999999996
    vertex 13.700000000000001 2.000000000000016 3.9999999999999996
  endloop
endfacet
facet normal -0.0 -0.0 1.0
  outer loop
    vertex 7.599999999999997 1.9999999999999998 3.9999999999999996
    vertex 13.700000000000001 2.000000000000016 3.9999999999999996
    vertex 7.599999999999997 31.5 3.9999999999999996
  endloop
endfacet
facet normal -0.0 -0.0 1.0
  outer loop
    vertex 7.599999999999997 31.5 3.9999999999999996
    vertex 13.700000000000001 2.000000000000016 3.9999999999999996
    vertex 7.599999999999997 33.49999999999999 3.9999999999999996
  endloop
endfacet
facet normal -0.0 -0.0 1.0
  outer loop
    vertex 13.700000000000001 2.000000000000016 3.9999999999999996
    vertex 59.6 0.0 3.9999999999999996
    vertex 56.50000000000001 1.9999999999999996 3.999999999999999
  endloop
endfacet
facet normal -0.0 -0.0 1.0
  outer loop
    vertex 56.50000000000001 1.9999999999999996 3.999999999999999
    vertex 59.6 0.0 3.9999999999999996
    vertex 56.50000000000001 31.500000000000004 3.999999999999999
  endloop
endfacet
facet normal -0.0 -0.0 1.0
  outer loop
    vertex 7.599999999999997 33.49999999999999 3.9999999999999996
    vertex 13.700000000000001 31.5 3.9999999999999996
    vertex 59.6 33.5 3.9999999999999996
  endloop
endfacet
facet normal -0.0 -0.0 1.0
  outer loop
    vertex 13.700000000000001 31.5 3.9999999999999996
    vertex 7.599999999999997 33.49999999999999 3.9999999999999996
    vertex 13.700000000000001 2.000000000000016 3.9999999999999996
  endloop
endfacet
facet normal -0.0 -0.0 1.0
  outer loop
    vertex 59.6 33.5 3.9999999999999996
    vertex 13.700000000000001 31.5 3.9999999999999996
    vertex 56.50000000000001 31.500000000000004 3.999999999999999
  endloop
endfacet
facet normal -0.0 -0.0 1.0
  outer loop
    vertex 59.6 33.5 3.9999999999999996
    vertex 56.50000000000001 31.500000000000004 3.999999999999999
    vertex 59.6 0.0 3.9999999999999996
  endloop
endfacet
facet normal -1.0 0.0 0.0
  outer loop
    vertex 8.850000000000001 31.5 1.9999999999999998
    vertex 8.850000000000001 2.000000000000019 2.114974861910923e-15
    vertex 8.850000000000001 2.000000000000019 1.9999999999999998
  endloop
endfacet
facet normal -1.0 0.0 0.0
  outer loop
    vertex 8.850000000000001 2.000000000000019 2.114974861910923e-15
    vertex 8.850000000000001 31.5 1.9999999999999998
    vertex 8.850000000000001 31.5 2.114974861910923e-15
  endloop
endfacet
facet normal 0.0 0.0 -1.0
  outer loop
    vertex 12.7 31.5 1.9999999999999998
    vertex 8.850000000000001 2.000000000000019 1.9999999999999998
    vertex 8.850000000000001 31.5 1.9999999999999998
  endloop
endfacet
facet normal 0.0 0.0 -1.0
  outer loop
    vertex 8.850000000000001 2.000000000000019 1.9999999999999998
    vertex 12.7 31.5 1.9999999999999998
    vertex 12.7 2.0000000000000178 1.9999999999999998
  endloop
endfacet
facet normal -1.0 0.0 0.0
  outer loop
    vertex 13.700000000000001 31.5 3.9999999999999996
    vertex 13.700000000000001 2.000000000000016 3.0
    vertex 13.700000000000001 2.000000000000016 3.9999999999999996
  endloop
endfacet
facet normal -1.0 0.0 0.0
  outer loop
    vertex 13.700000000000001 2.000000000000016 3.0
    vertex 13.700000000000001 31.5 3.9999999999999996
    vertex 13.700000000000001 31.5 3.0
  endloop
endfacet
facet normal -0.7071067811865472 -9.093658886135636e-19 0.7071067811865479
  outer loop
    vertex 13.700000000000001 2.000000000000016 3.0
    vertex 12.7 31.5 1.9999999999999998
    vertex 12.7 2.0000000000000178 1.9999999999999998
  endloop
endfacet
facet normal -0.7071067811865472 -9.093658886135636e-19 0.7071067811865479
  outer loop
    vertex 12.7 31.5 1.9999999999999998
    vertex 13.700000000000001 2.000000000000016 3.0
    vertex 13.700000000000001 31.5 3.0
  endloop
endfacet
facet normal 0.9914448613738105 -0.0 0.1305261922200518
  outer loop
    vertex 1.6681483474218624 33.49999999999999 3.4823619097949585
    vertex 1.5999999999999988 0.0 3.9999999999999996
    vertex 1.6681483474218624 0.0 3.4823619097949585
  endloop
endfacet
facet normal 0.9914448613738105 -0.0 0.1305261922200518
  outer loop
    vertex 1.5999999999999988 0.0 3.9999999999999996
    vertex 1.6681483474218624 33.49999999999999 3.4823619097949585
    vertex 1.5999999999999988 33.49999999999999 3.9999999999999996
  endloop
endfacet
facet normal 0.9914448613738105 -0.0 -0.1305261922200518
  outer loop
    vertex 1.5999999999999988 33.49999999999999 3.9999999999999996
    vertex 1.6681483474218624 0.0 4.517638090205041
    vertex 1.5999999999999988 0.0 3.9999999999999996
  endloop
endfacet
facet normal 0.9914448613738105 -0.0 -0.1305261922200518
  outer loop
    vertex 1.6681483474218624 0.0 4.517638090205041
    vertex 1.5999999999999988 33.49999999999999 3.9999999999999996
    vertex 1.6681483474218624 33.49999999999999 4.517638090205041
  endloop
endfacet
facet normal 0.9238795325112868 0.0 -0.38268343236508956
  outer loop
    vertex 1.6681483474218624 33.49999999999999 4.517638090205041
    vertex 1.8679491924311213 0.0 4.999999999999999
    vertex 1.6681483474218624 0.0 4.517638090205041
  endloop
endfacet
facet normal 0.9238795325112868 0.0 -0.38268343236508956
  outer loop
    vertex 1.8679491924311213 0.0 4.999999999999999
    vertex 1.6681483474218624 33.49999999999999 4.517638090205041
    vertex 1.8679491924311213 33.49999999999999 4.999999999999999
  endloop
endfacet
facet normal 0.793353340291236 0.0 -0.6087614290087195
  outer loop
    vertex 1.8679491924311213 33.49999999999999 4.999999999999999
    vertex 1.9999999999999973 0.0 5.17209196292793
    vertex 1.8679491924311213 0.0 4.999999999999999
  endloop
endfacet
facet normal 0.793353340291236 0.0 -0.6087614290087195
  outer loop
    vertex 1.9999999999999973 0.0 5.17209196292793
    vertex 1.8679491924311213 33.49999999999999 4.999999999999999
    vertex 1.9999999999999973 33.49999999999999 5.17209196292793
  endloop
endfacet
facet normal 0.8032063140062675 0.0 0.5957009460630941
  outer loop
    vertex 1.9999999999999973 33.49999999999999 5.17209196292793
    vertex 0.7715728752538089 0.0 6.828427124746187
    vertex 1.9999999999999973 0.0 5.17209196292793
  endloop
endfacet
facet normal 0.8032063140062675 0.0 0.5957009460630941
  outer loop
    vertex 0.7715728752538089 0.0 6.828427124746187
    vertex 1.9999999999999973 33.49999999999999 5.17209196292793
    vertex 0.7715728752538089 33.49999999999999 6.828427124746187
  endloop
endfacet
facet normal -0.793353340291235 0.0 0.6087614290087208
  outer loop
    vertex 0.7715728752538089 33.49999999999999 6.828427124746187
    vertex 0.13589838486224518 0.0 5.999999999999998
    vertex 0.7715728752538089 0.0 6.828427124746187
  endloop
endfacet
facet normal -0.793353340291235 0.0 0.6087614290087208
  outer loop
    vertex 0.13589838486224518 0.0 5.999999999999998
    vertex 0.7715728752538089 33.49999999999999 6.828427124746187
    vertex 0.13589838486224518 33.49999999999999 5.999999999999998
  endloop
endfacet
facet normal -0.9238795325112867 0.0 0.3826834323650898
  outer loop
    vertex 0.13589838486224518 33.49999999999999 5.999999999999998
    vertex -0.26370330515627294 0.0 5.035276180410082
    vertex 0.13589838486224518 0.0 5.999999999999998
  endloop
endfacet
facet normal -0.9238795325112867 0.0 0.3826834323650898
  outer loop
    vertex -0.26370330515627294 0.0 5.035276180410082
    vertex 0.13589838486224518 33.49999999999999 5.999999999999998
    vertex -0.26370330515627294 33.49999999999999 5.035276180410082
  endloop
endfacet
facet normal 0.9238795325112867 -0.0 0.38268343236509006
  outer loop
    vertex 1.799999999999998 1.9999999999999998 3.164043861919518
    vertex 1.6681483474218624 0.0 3.4823619097949585
    vertex 1.799999999999998 0.0 3.164043861919518
  endloop
endfacet
facet normal 0.9238795325112867 -0.0 0.38268343236509006
  outer loop
    vertex 1.6681483474218624 0.0 3.4823619097949585
    vertex 1.799999999999998 1.9999999999999998 3.164043861919518
    vertex 1.6681483474218624 33.49999999999999 3.4823619097949585
  endloop
endfacet
facet normal 0.9238795325112867 -0.0 0.38268343236509006
  outer loop
    vertex 1.6681483474218624 33.49999999999999 3.4823619097949585
    vertex 1.799999999999998 1.9999999999999998 3.164043861919518
    vertex 1.799999999999998 31.499999999999993 3.1640438619195166
  endloop
endfacet
facet normal 0.9238795325112867 -0.0 0.38268343236509006
  outer loop
    vertex 1.6681483474218624 33.49999999999999 3.4823619097949585
    vertex 1.799999999999998 31.499999999999993 3.1640438619195166
    vertex 1.799999999999998 33.49999999999999 3.164043861919518
  endloop
endfacet
facet normal 0.9238795325112868 -3.8336852936443263e-34 0.3826834323650896
  outer loop
    vertex 1.8679491924311213 31.499999999999993 2.9999999999999996
    vertex 1.799999999999998 1.9999999999999998 3.164043861919518
    vertex 1.8679491924311213 1.9999999999999998 3.0000000000000004
  endloop
endfacet
facet normal 0.9238795325112868 -3.8336852936443263e-34 0.3826834323650896
  outer loop
    vertex 1.799999999999998 1.9999999999999998 3.164043861919518
    vertex 1.8679491924311213 31.499999999999993 2.9999999999999996
    vertex 1.799999999999998 31.499999999999993 3.1640438619195166
  endloop
endfacet
facet normal -0.7933533402912357 0.0 0.6087614290087202
  outer loop
    vertex 5.332050807568874 31.499999999999993 2.9999999999999996
    vertex 5.014213562373092 1.9999999999999998 2.5857864376269055
    vertex 5.332050807568874 1.9999999999999998 3.0000000000000004
  endloop
endfacet
facet normal -0.7933533402912357 0.0 0.6087614290087202
  outer loop
    vertex 5.014213562373092 1.9999999999999998 2.5857864376269055
    vertex 5.332050807568874 31.499999999999993 2.9999999999999996
    vertex 5.014213562373092 31.499999999999993 2.585786437626904
  endloop
endfacet
facet normal -0.6087614290087199 0.0 0.7933533402912359
  outer loop
    vertex 5.014213562373092 1.9999999999999998 2.5857864376269055
    vertex 4.599999999999996 31.499999999999993 2.2679491924311224
    vertex 4.599999999999996 1.9999999999999998 2.2679491924311237
  endloop
endfacet
facet normal -0.6087614290087199 0.0 0.7933533402912359
  outer loop
    vertex 4.599999999999996 31.499999999999993 2.2679491924311224
    vertex 5.014213562373092 1.9999999999999998 2.5857864376269055
    vertex 5.014213562373092 31.499999999999993 2.585786437626904
  endloop
endfacet
facet normal -0.3826834323650902 0.0 0.9238795325112867
  outer loop
    vertex 4.599999999999996 1.9999999999999998 2.2679491924311237
    vertex 4.1176380902050385 31.499999999999993 2.068148347421863
    vertex 4.1176380902050385 1.9999999999999998 2.068148347421864
  endloop
endfacet
facet normal -0.3826834323650902 0.0 0.9238795325112867
  outer loop
    vertex 4.1176380902050385 31.499999999999993 2.068148347421863
    vertex 4.599999999999996 1.9999999999999998 2.2679491924311237
    vertex 4.599999999999996 31.499999999999993 2.2679491924311224
  endloop
endfacet
facet normal -0.13052619222005113 0.0 0.9914448613738105
  outer loop
    vertex 4.1176380902050385 1.9999999999999998 2.068148347421864
    vertex 3.599999999999997 31.499999999999993 1.9999999999999998
    vertex 3.599999999999997 1.9999999999999998 2.000000000000001
  endloop
endfacet
facet normal -0.13052619222005113 0.0 0.9914448613738105
  outer loop
    vertex 3.599999999999997 31.499999999999993 1.9999999999999998
    vertex 4.1176380902050385 1.9999999999999998 2.068148347421864
    vertex 4.1176380902050385 31.499999999999993 2.068148347421863
  endloop
endfacet
facet normal 0.13052619222005188 0.0 0.9914448613738104
  outer loop
    vertex 3.599999999999997 1.9999999999999998 2.000000000000001
    vertex 3.082361909794956 31.499999999999993 2.068148347421863
    vertex 3.082361909794956 1.9999999999999998 2.0681483474218645
  endloop
endfacet
facet normal 0.13052619222005188 0.0 0.9914448613738104
  outer loop
    vertex 3.082361909794956 31.499999999999993 2.068148347421863
    vertex 3.599999999999997 1.9999999999999998 2.000000000000001
    vertex 3.599999999999997 31.499999999999993 1.9999999999999998
  endloop
endfacet
facet normal 0.3826834323650898 0.0 0.9238795325112867
  outer loop
    vertex 3.082361909794956 1.9999999999999998 2.0681483474218645
    vertex 2.599999999999998 31.499999999999993 2.2679491924311224
    vertex 2.599999999999998 1.9999999999999998 2.2679491924311237
  endloop
endfacet
facet normal 0.3826834323650898 0.0 0.9238795325112867
  outer loop
    vertex 2.599999999999998 31.499999999999993 2.2679491924311224
    vertex 3.082361909794956 1.9999999999999998 2.0681483474218645
    vertex 3.082361909794956 31.499999999999993 2.068148347421863
  endloop
endfacet
facet normal 0.6087614290087209 0.0 0.7933533402912349
  outer loop
    vertex 2.599999999999998 1.9999999999999998 2.2679491924311237
    vertex 2.1857864376269034 31.499999999999993 2.5857864376269046
    vertex 2.1857864376269034 1.9999999999999998 2.5857864376269055
  endloop
endfacet
facet normal 0.6087614290087209 0.0 0.7933533402912349
  outer loop
    vertex 2.1857864376269034 31.499999999999993 2.5857864376269046
    vertex 2.599999999999998 1.9999999999999998 2.2679491924311237
    vertex 2.599999999999998 31.499999999999993 2.2679491924311224
  endloop
endfacet
facet normal 0.7933533402912354 0.0 0.6087614290087205
  outer loop
    vertex 2.1857864376269034 31.499999999999993 2.5857864376269046
    vertex 1.8679491924311213 1.9999999999999998 3.0000000000000004
    vertex 2.1857864376269034 1.9999999999999998 2.5857864376269055
  endloop
endfacet
facet normal 0.7933533402912354 0.0 0.6087614290087205
  outer loop
    vertex 1.8679491924311213 1.9999999999999998 3.0000000000000004
    vertex 2.1857864376269034 31.499999999999993 2.5857864376269046
    vertex 1.8679491924311213 31.499999999999993 2.9999999999999996
  endloop
endfacet
facet normal -1.0 0.0 0.0
  outer loop
    vertex 5.399999999999997 1.9999999999999998 3.164043861919518
    vertex 5.399999999999997 0.0 2.082156286467478e-15
    vertex 5.399999999999997 0.0 3.164043861919518
  endloop
endfacet
facet normal -1.0 0.0 0.0
  outer loop
    vertex 5.399999999999997 0.0 2.082156286467478e-15
    vertex 5.399999999999997 1.9999999999999998 3.164043861919518
    vertex 5.399999999999997 1.9999999999999998 2.082156286467478e-15
  endloop
endfacet
facet normal 2.3472795804072277e-17 2.2372178916669034e-17 1.0
  outer loop
    vertex 61.6 0.0 0.0
    vertex 5.399999999999997 1.9999999999999998 2.082156286467478e-15
    vertex 5.399999999999997 0.0 2.082156286467478e-15
  endloop
endfacet
facet normal 2.3472795804072277e-17 2.2372178916669034e-17 1.0
  outer loop
    vertex 5.399999999999997 1.9999999999999998 2.082156286467478e-15
    vertex 61.6 0.0 0.0
    vertex 8.850000000000001 2.000000000000019 2.114974861910923e-15
  endloop
endfacet
facet normal 2.3472795804072277e-17 2.2372178916669034e-17 1.0
  outer loop
    vertex 5.399999999999997 1.9999999999999998 2.082156286467478e-15
    vertex 8.850000000000001 2.000000000000019 2.114974861910923e-15
    vertex 5.399999999999997 33.49999999999999 6.399704340039019e-16
  endloop
endfacet
facet normal 2.3472795804072277e-17 2.2372178916669034e-17 1.0
  outer loop
    vertex 8.850000000000001 2.000000000000019 2.114974861910923e-15
    vertex 61.6 0.0 0.0
    vertex 18.7 2.0000000000000018 -4.229949723821846e-15
  endloop
endfacet
facet normal 2.3472795804072277e-17 2.2372178916669034e-17 1.0
  outer loop
    vertex 18.7 2.0000000000000018 -4.229949723821846e-15
    vertex 61.6 0.0 0.0
    vertex 25.599999999999998 2.0000000000000018 7.049916206369744e-15
  endloop
endfacet
facet normal 2.3472795804072277e-17 2.2372178916669034e-17 1.0
  outer loop
    vertex 18.7 2.0000000000000018 -4.229949723821846e-15
    vertex 25.599999999999998 2.0000000000000018 7.049916206369744e-15
    vertex 18.7 31.5 -4.229949723821846e-15
  endloop
endfacet
facet normal 2.3472795804072277e-17 2.2372178916669034e-17 1.0
  outer loop
    vertex 25.599999999999998 2.0000000000000018 7.049916206369744e-15
    vertex 61.6 0.0 0.0
    vertex 42.5 2.0000000000000018 7.049916206369744e-15
  endloop
endfacet
facet normal 2.3472795804072277e-17 2.2372178916669034e-17 1.0
  outer loop
    vertex 42.5 2.0000000000000018 7.049916206369744e-15
    vertex 61.6 0.0 0.0
    vertex 49.650000000000006 1.9999999999999996 2.114974861910923e-15
  endloop
endfacet
facet normal 2.3472795804072277e-17 2.2372178916669034e-17 1.0
  outer loop
    vertex 42.5 2.0000000000000018 7.049916206369744e-15
    vertex 49.650000000000006 1.9999999999999996 2.114974861910923e-15
    vertex 42.5 31.500000000000004 7.049916206369744e-15
  endloop
endfacet
facet normal 2.3472795804072277e-17 2.2372178916669034e-17 1.0
  outer loop
    vertex 49.650000000000006 1.9999999999999996 2.114974861910923e-15
    vertex 61.6 0.0 0.0
    vertex 59.50000000000001 1.9999999999999996 0.0
  endloop
endfacet
facet normal 2.3472795804072277e-17 2.2372178916669034e-17 1.0
  outer loop
    vertex 59.50000000000001 1.9999999999999996 0.0
    vertex 61.6 0.0 0.0
    vertex 59.50000000000001 31.500000000000004 0.0
  endloop
endfacet
facet normal 2.3472795804072277e-17 2.2372178916669034e-17 1.0
  outer loop
    vertex 5.399999999999997 33.49999999999999 6.399704340039019e-16
    vertex 8.850000000000001 31.5 2.114974861910923e-15
    vertex 61.6 33.5 0.0
  endloop
endfacet
facet normal 2.3472795804072277e-17 2.2372178916669034e-17 1.0
  outer loop
    vertex 8.850000000000001 31.5 2.114974861910923e-15
    vertex 5.399999999999997 33.49999999999999 6.399704340039019e-16
    vertex 8.850000000000001 2.000000000000019 2.114974861910923e-15
  endloop
endfacet
facet normal 2.3472795804072277e-17 2.2372178916669034e-17 1.0
  outer loop
    vertex 61.6 33.5 0.0
    vertex 8.850000000000001 31.5 2.114974861910923e-15
    vertex 18.7 31.5 -4.229949723821846e-15
  endloop
endfacet
facet normal 2.3472795804072277e-17 2.2372178916669034e-17 1.0
  outer loop
    vertex 61.6 33.5 0.0
    vertex 18.7 31.5 -4.229949723821846e-15
    vertex 25.599999999999998 31.5 7.049916206369744e-15
  endloop
endfacet
facet normal 2.3472795804072277e-17 2.2372178916669034e-17 1.0
  outer loop
    vertex 25.599999999999998 31.5 7.049916206369744e-15
    vertex 18.7 31.5 -4.229949723821846e-15
    vertex 25.599999999999998 2.0000000000000018 7.049916206369744e-15
  endloop
endfacet
facet normal 2.3472795804072277e-17 2.2372178916669034e-17 1.0
  outer loop
    vertex 61.6 33.5 0.0
    vertex 25.599999999999998 31.5 7.049916206369744e-15
    vertex 42.5 31.500000000000004 7.049916206369744e-15
  endloop
endfacet
facet normal 2.3472795804072277e-17 2.2372178916669034e-17 1.0
  outer loop
    vertex 61.6 33.5 0.0
    vertex 42.5 31.500000000000004 7.049916206369744e-15
    vertex 49.650000000000006 31.500000000000004 2.114974861910923e-15
  endloop
endfacet
facet normal 2.3472795804072277e-17 2.2372178916669034e-17 1.0
  outer loop
    vertex 49.650000000000006 31.500000000000004 2.114974861910923e-15
    vertex 42.5 31.500000000000004 7.049916206369744e-15
    vertex 49.650000000000006 1.9999999999999996 2.114974861910923e-15
  endloop
endfacet
facet normal 2.3472795804072277e-17 2.2372178916669034e-17 1.0
  outer loop
    vertex 61.6 33.5 0.0
    vertex 49.650000000000006 31.500000000000004 2.114974861910923e-15
    vertex 59.50000000000001 31.500000000000004 0.0
  endloop
endfacet
facet normal 2.3472795804072277e-17 2.2372178916669034e-17 1.0
  outer loop
    vertex 61.6 33.5 0.0
    vertex 59.50000000000001 31.500000000000004 0.0
    vertex 61.6 0.0 0.0
  endloop
endfacet
facet normal 2.3472795804072277e-17 2.2372178916669034e-17 1.0
  outer loop
    vertex 1.799999999999998 1.9999999999999998 1.2866097076624784e-15
    vertex 5.3999999999999915 31.499999999999993 4.3156968548876055e-16
    vertex 1.7999999999999978 31.499999999999993 1.55279268405149e-15
  endloop
endfacet
facet normal 2.3472795804072277e-17 2.2372178916669034e-17 1.0
  outer loop
    vertex 5.3999999999999915 31.499999999999993 4.3156968548876055e-16
    vertex 1.799999999999998 1.9999999999999998 1.2866097076624784e-15
    vertex 5.399999999999997 1.9999999999999998 2.082156286467478e-15
  endloop
endfacet
facet normal 2.3472795804072277e-17 2.2372178916669034e-17 1.0
  outer loop
    vertex 5.3999999999999915 31.499999999999993 4.3156968548876055e-16
    vertex 5.399999999999997 1.9999999999999998 2.082156286467478e-15
    vertex 5.399999999999997 33.49999999999999 6.399704340039019e-16
  endloop
endfacet
facet normal -1.0 7.578659921847475e-14 4.790489798867559e-14
  outer loop
    vertex 1.799999999999998 1.9999999999999998 3.164043861919518
    vertex 1.799999999999695 1.762479051592436e-15 1.286609707662464e-15
    vertex 1.799999999999998 0.0 3.164043861919518
  endloop
endfacet
facet normal -1.0 7.578659921847475e-14 4.790489798867559e-14
  outer loop
    vertex 1.799999999999695 1.762479051592436e-15 1.286609707662464e-15
    vertex 1.799999999999998 1.9999999999999998 3.164043861919518
    vertex 1.799999999999998 1.9999999999999998 1.2866097076624784e-15
  endloop
endfacet
facet normal -7.744725152502791e-17 1.0 1.069147522611246e-16
  outer loop
    vertex 0.7715728752538089 0.0 1.1715728752538117
    vertex 1.799999999999998 0.0 3.164043861919518
    vertex 1.799999999999695 1.762479051592436e-15 1.286609707662464e-15
  endloop
endfacet
facet normal -7.744725152502791e-17 1.0 1.069147522611246e-16
  outer loop
    vertex 1.799999999999998 0.0 3.164043861919518
    vertex 0.7715728752538089 0.0 1.1715728752538117
    vertex 0.13589838486224518 0.0 2.0000000000000013
  endloop
endfacet
facet normal -7.744725152502791e-17 1.0 1.069147522611246e-16
  outer loop
    vertex 1.799999999999998 0.0 3.164043861919518
    vertex 0.13589838486224518 0.0 2.0000000000000013
    vertex -0.26370330515627294 0.0 2.9647238195899175
  endloop
endfacet
facet normal -7.744725152502791e-17 1.0 1.069147522611246e-16
  outer loop
    vertex 1.799999999999998 0.0 3.164043861919518
    vertex -0.26370330515627294 0.0 2.9647238195899175
    vertex -0.4000000000000001 0.0 3.9999999999999996
  endloop
endfacet
facet normal -7.744725152502791e-17 1.0 1.069147522611246e-16
  outer loop
    vertex 1.799999999999998 0.0 3.164043861919518
    vertex -0.4000000000000001 0.0 3.9999999999999996
    vertex 1.6681483474218624 0.0 3.4823619097949585
  endloop
endfacet
facet normal -7.744725152502791e-17 1.0 1.069147522611246e-16
  outer loop
    vertex 1.6681483474218624 0.0 3.4823619097949585
    vertex -0.4000000000000001 0.0 3.9999999999999996
    vertex 1.5999999999999988 0.0 3.9999999999999996
  endloop
endfacet
facet normal -7.744725152502791e-17 1.0 1.069147522611246e-16
  outer loop
    vertex 1.5999999999999988 0.0 3.9999999999999996
    vertex -0.4000000000000001 0.0 3.9999999999999996
    vertex -0.26370330515627294 0.0 5.035276180410082
  endloop
endfacet
facet normal -7.744725152502791e-17 1.0 1.069147522611246e-16
  outer loop
    vertex 1.5999999999999988 0.0 3.9999999999999996
    vertex -0.26370330515627294 0.0 5.035276180410082
    vertex 1.6681483474218624 0.0 4.517638090205041
  endloop
endfacet
facet normal -7.744725152502791e-17 1.0 1.069147522611246e-16
  outer loop
    vertex 1.6681483474218624 0.0 4.517638090205041
    vertex -0.26370330515627294 0.0 5.035276180410082
    vertex 1.8679491924311213 0.0 4.999999999999999
  endloop
endfacet
facet normal -7.744725152502791e-17 1.0 1.069147522611246e-16
  outer loop
    vertex 1.8679491924311213 0.0 4.999999999999999
    vertex -0.26370330515627294 0.0 5.035276180410082
    vertex 1.9999999999999973 0.0 5.17209196292793
  endloop
endfacet
facet normal -7.744725152502791e-17 1.0 1.069147522611246e-16
  outer loop
    vertex 1.9999999999999973 0.0 5.17209196292793
    vertex -0.26370330515627294 0.0 5.035276180410082
    vertex 0.13589838486224518 0.0 5.999999999999998
  endloop
endfacet
facet normal -7.744725152502791e-17 1.0 1.069147522611246e-16
  outer loop
    vertex 1.9999999999999973 0.0 5.17209196292793
    vertex 0.13589838486224518 0.0 5.999999999999998
    vertex 0.7715728752538089 0.0 6.828427124746187
  endloop
endfacet
facet normal 1.1813113773094978e-15 1.0 1.0320065668443542e-15
  outer loop
    vertex -0.26370330515627294 33.49999999999999 5.035276180410082
    vertex 1.5999999999999988 33.49999999999999 3.9999999999999996
    vertex -0.4000000000000001 33.5 3.9999999999999996
  endloop
endfacet
facet normal 1.1813113773094978e-15 1.0 1.0320065668443542e-15
  outer loop
    vertex 1.5999999999999988 33.49999999999999 3.9999999999999996
    vertex -0.26370330515627294 33.49999999999999 5.035276180410082
    vertex 1.6681483474218624 33.49999999999999 4.517638090205041
  endloop
endfacet
facet normal 1.1813113773094978e-15 1.0 1.0320065668443542e-15
  outer loop
    vertex 1.6681483474218624 33.49999999999999 4.517638090205041
    vertex -0.26370330515627294 33.49999999999999 5.035276180410082
    vertex 1.8679491924311213 33.49999999999999 4.999999999999999
  endloop
endfacet
facet normal 1.1813113773094978e-15 1.0 1.0320065668443542e-15
  outer loop
    vertex 1.8679491924311213 33.49999999999999 4.999999999999999
    vertex -0.26370330515627294 33.49999999999999 5.035276180410082
    vertex 1.9999999999999973 33.49999999999999 5.17209196292793
  endloop
endfacet
facet normal 1.1813113773094978e-15 1.0 1.0320065668443542e-15
  outer loop
    vertex 1.9999999999999973 33.49999999999999 5.17209196292793
    vertex -0.26370330515627294 33.49999999999999 5.035276180410082
    vertex 0.13589838486224518 33.49999999999999 5.999999999999998
  endloop
endfacet
facet normal 1.1813113773094978e-15 1.0 1.0320065668443542e-15
  outer loop
    vertex 1.9999999999999973 33.49999999999999 5.17209196292793
    vertex 0.13589838486224518 33.49999999999999 5.999999999999998
    vertex 0.7715728752538089 33.49999999999999 6.828427124746187
  endloop
endfacet
facet normal -0.9914448613738105 1.9732523178360992e-20 0.13052619222005193
  outer loop
    vertex -0.26370330515627294 33.49999999999999 5.035276180410082
    vertex -0.4000000000000001 0.0 3.9999999999999996
    vertex -0.26370330515627294 0.0 5.035276180410082
  endloop
endfacet
facet normal -0.9914448613738105 1.9732523178360992e-20 0.13052619222005193
  outer loop
    vertex -0.4000000000000001 0.0 3.9999999999999996
    vertex -0.26370330515627294 33.49999999999999 5.035276180410082
    vertex -0.4000000000000001 33.5 3.9999999999999996
  endloop
endfacet
facet normal -0.9914448613738105 1.9732523178360746e-20 -0.13052619222005193
  outer loop
    vertex -0.4000000000000001 33.5 3.9999999999999996
    vertex -0.26370330515627294 0.0 2.9647238195899175
    vertex -0.4000000000000001 0.0 3.9999999999999996
  endloop
endfacet
facet normal -0.9914448613738105 1.9732523178360746e-20 -0.13052619222005193
  outer loop
    vertex -0.26370330515627294 0.0 2.9647238195899175
    vertex -0.4000000000000001 33.5 3.9999999999999996
    vertex -0.26370330515627294 33.49999999999999 2.9647238195899175
  endloop
endfacet
facet normal -0.9238795325112868 0.0 -0.3826834323650897
  outer loop
    vertex -0.26370330515627294 33.49999999999999 2.9647238195899175
    vertex 0.13589838486224518 0.0 2.0000000000000013
    vertex -0.26370330515627294 0.0 2.9647238195899175
  endloop
endfacet
facet normal -0.9238795325112868 0.0 -0.3826834323650897
  outer loop
    vertex 0.13589838486224518 0.0 2.0000000000000013
    vertex -0.26370330515627294 33.49999999999999 2.9647238195899175
    vertex 0.13589838486224518 33.49999999999999 2.0000000000000013
  endloop
endfacet
facet normal -0.7933533402912353 0.0 -0.6087614290087204
  outer loop
    vertex 0.13589838486224518 33.49999999999999 2.0000000000000013
    vertex 0.7715728752538089 0.0 1.1715728752538117
    vertex 0.13589838486224518 0.0 2.0000000000000013
  endloop
endfacet
facet normal -0.7933533402912353 0.0 -0.6087614290087204
  outer loop
    vertex 0.7715728752538089 0.0 1.1715728752538117
    vertex 0.13589838486224518 33.49999999999999 2.0000000000000013
    vertex 0.7715728752538089 33.49999999999999 1.1715728752538117
  endloop
endfacet
facet normal -1.0 1.0750455046419076e-31 7.258456211444565e-17
  outer loop
    vertex 1.799999999999998 33.49999999999999 3.164043861919518
    vertex 1.7999999999999978 31.499999999999993 1.55279268405149e-15
    vertex 1.799999999999998 31.499999999999993 3.1640438619195166
  endloop
endfacet
facet normal -1.0 1.0750455046419076e-31 7.258456211444565e-17
  outer loop
    vertex 1.7999999999999978 31.499999999999993 1.55279268405149e-15
    vertex 1.799999999999998 33.49999999999999 3.164043861919518
    vertex 1.7999999999999978 33.49999999999999 1.55279268405149e-15
  endloop
endfacet
facet normal 1.2634718221157822e-15 1.0 -9.84819538107864e-16
  outer loop
    vertex 0.7715728752538089 33.49999999999999 1.1715728752538117
    vertex 1.799999999999998 33.49999999999999 3.164043861919518
    vertex 1.7999999999999978 33.49999999999999 1.55279268405149e-15
  endloop
endfacet
facet normal 1.2634718221157822e-15 1.0 -9.84819538107864e-16
  outer loop
    vertex 1.799999999999998 33.49999999999999 3.164043861919518
    vertex 0.7715728752538089 33.49999999999999 1.1715728752538117
    vertex 0.13589838486224518 33.49999999999999 2.0000000000000013
  endloop
endfacet
facet normal 1.2634718221157822e-15 1.0 -9.84819538107864e-16
  outer loop
    vertex 1.799999999999998 33.49999999999999 3.164043861919518
    vertex 0.13589838486224518 33.49999999999999 2.0000000000000013
    vertex -0.26370330515627294 33.49999999999999 2.9647238195899175
  endloop
endfacet
facet normal 1.2634718221157822e-15 1.0 -9.84819538107864e-16
  outer loop
    vertex 1.799999999999998 33.49999999999999 3.164043861919518
    vertex -0.26370330515627294 33.49999999999999 2.9647238195899175
    vertex -0.4000000000000001 33.5 3.9999999999999996
  endloop
endfacet
facet normal 1.2634718221157822e-15 1.0 -9.84819538107864e-16
  outer loop
    vertex 1.799999999999998 33.49999999999999 3.164043861919518
    vertex -0.4000000000000001 33.5 3.9999999999999996
    vertex 1.6681483474218624 33.49999999999999 3.4823619097949585
  endloop
endfacet
facet normal 1.2634718221157822e-15 1.0 -9.84819538107864e-16
  outer loop
    vertex 1.6681483474218624 33.49999999999999 3.4823619097949585
    vertex -0.4000000000000001 33.5 3.9999999999999996
    vertex 1.5999999999999988 33.49999999999999 3.9999999999999996
  endloop
endfacet
facet normal -0.7515264106817335 2.448010091342005e-15 -0.6597030044253479
  outer loop
    vertex 0.7715728752538089 33.49999999999999 1.1715728752538117
    vertex 1.799999999999695 1.762479051592436e-15 1.286609707662464e-15
    vertex 0.7715728752538089 0.0 1.1715728752538117
  endloop
endfacet
facet normal -0.7515264106817335 2.448010091342005e-15 -0.6597030044253479
  outer loop
    vertex 1.799999999999695 1.762479051592436e-15 1.286609707662464e-15
    vertex 0.7715728752538089 33.49999999999999 1.1715728752538117
    vertex 1.799999999999998 1.9999999999999998 1.2866097076624784e-15
  endloop
endfacet
facet normal -0.7515264106817335 2.448010091342005e-15 -0.6597030044253479
  outer loop
    vertex 1.799999999999998 1.9999999999999998 1.2866097076624784e-15
    vertex 0.7715728752538089 33.49999999999999 1.1715728752538117
    vertex 1.7999999999999978 31.499999999999993 1.55279268405149e-15
  endloop
endfacet
facet normal -0.7515264106817335 2.448010091342005e-15 -0.6597030044253479
  outer loop
    vertex 1.7999999999999978 31.499999999999993 1.55279268405149e-15
    vertex 0.7715728752538089 33.49999999999999 1.1715728752538117
    vertex 1.7999999999999978 33.49999999999999 1.55279268405149e-15
  endloop
endfacet
facet normal -0.0 1.0 -0.0
  outer loop
    vertex 5.599999999999997 0.0 4.0
    vertex 7.599999999999997 0.0 3.9999999999999996
    vertex 5.531851652578133 0.0 3.482361909794959
  endloop
endfacet
facet normal -0.0 1.0 -0.0
  outer loop
    vertex 7.599999999999997 0.0 3.9999999999999996
    vertex 5.599999999999997 0.0 4.0
    vertex 7.463703305156267 0.0 5.035276180410082
  endloop
endfacet
facet normal -0.0 1.0 -0.0
  outer loop
    vertex 7.463703305156267 0.0 5.035276180410082
    vertex 5.599999999999997 0.0 4.0
    vertex 5.531851652578133 0.0 4.517638090205041
  endloop
endfacet
facet normal -0.0 1.0 -0.0
  outer loop
    vertex 7.463703305156267 0.0 5.035276180410082
    vertex 5.531851652578133 0.0 4.517638090205041
    vertex 5.332050807568874 0.0 4.999999999999999
  endloop
endfacet
facet normal -0.0 1.0 -0.0
  outer loop
    vertex 7.463703305156267 0.0 5.035276180410082
    vertex 5.332050807568874 0.0 4.999999999999999
    vertex 5.199999999999997 0.0 5.172091962927932
  endloop
endfacet
facet normal -0.0 1.0 -0.0
  outer loop
    vertex 7.463703305156267 0.0 5.035276180410082
    vertex 5.199999999999997 0.0 5.172091962927932
    vertex 7.0641016151377505 0.0 5.999999999999998
  endloop
endfacet
facet normal -0.0 1.0 -0.0
  outer loop
    vertex 7.0641016151377505 0.0 5.999999999999998
    vertex 5.199999999999997 0.0 5.172091962927932
    vertex 6.428427124746185 0.0 6.828427124746188
  endloop
endfacet
facet normal -0.0 1.0 -0.0
  outer loop
    vertex 5.399999999999997 0.0 2.082156286467478e-15
    vertex 61.6 0.0 3.9999999999999996
    vertex 61.6 0.0 0.0
  endloop
endfacet
facet normal -0.0 1.0 -0.0
  outer loop
    vertex 61.6 0.0 3.9999999999999996
    vertex 5.399999999999997 0.0 2.082156286467478e-15
    vertex 5.399999999999997 0.0 3.164043861919518
  endloop
endfacet
facet normal -0.0 1.0 -0.0
  outer loop
    vertex 61.6 0.0 3.9999999999999996
    vertex 5.399999999999997 0.0 3.164043861919518
    vertex 5.531851652578133 0.0 3.482361909794959
  endloop
endfacet
facet normal -0.0 1.0 -0.0
  outer loop
    vertex 61.6 0.0 3.9999999999999996
    vertex 5.531851652578133 0.0 3.482361909794959
    vertex 7.599999999999997 0.0 3.9999999999999996
  endloop
endfacet
facet normal -0.0 1.0 -0.0
  outer loop
    vertex 61.6 0.0 3.9999999999999996
    vertex 7.599999999999997 0.0 3.9999999999999996
    vertex 59.6 0.0 3.9999999999999996
  endloop
endfacet
facet normal -0.0 1.0 -0.0
  outer loop
    vertex 61.6 0.0 3.9999999999999996
    vertex 59.6 0.0 3.9999999999999996
    vertex 60.6 0.0 3.9999999999999996
  endloop
endfacet
facet normal -0.9238795325112867 0.0 0.38268343236509
  outer loop
    vertex 5.531851652578133 1.9999999999999998 3.482361909794959
    vertex 5.399999999999997 0.0 3.164043861919518
    vertex 5.531851652578133 0.0 3.482361909794959
  endloop
endfacet
facet normal -0.9238795325112867 0.0 0.38268343236509
  outer loop
    vertex 5.399999999999997 0.0 3.164043861919518
    vertex 5.531851652578133 1.9999999999999998 3.482361909794959
    vertex 5.399999999999997 1.9999999999999998 3.164043861919518
  endloop
endfacet
facet normal -0.9914448613738105 0.0 0.1305261922200518
  outer loop
    vertex 5.599999999999997 1.9999999999999998 4.0
    vertex 5.531851652578133 0.0 3.482361909794959
    vertex 5.599999999999997 0.0 4.0
  endloop
endfacet
facet normal -0.9914448613738105 0.0 0.1305261922200518
  outer loop
    vertex 5.531851652578133 0.0 3.482361909794959
    vertex 5.599999999999997 1.9999999999999998 4.0
    vertex 5.531851652578133 1.9999999999999998 3.482361909794959
  endloop
endfacet
facet normal -0.9914448613738105 0.0 -0.13052619222005216
  outer loop
    vertex 5.531851652578133 1.9999999999999998 4.517638090205041
    vertex 5.599999999999997 0.0 4.0
    vertex 5.531851652578133 0.0 4.517638090205041
  endloop
endfacet
facet normal -0.9914448613738105 0.0 -0.13052619222005216
  outer loop
    vertex 5.599999999999997 0.0 4.0
    vertex 5.531851652578133 1.9999999999999998 4.517638090205041
    vertex 5.599999999999997 1.9999999999999998 4.0
  endloop
endfacet
facet normal -0.9238795325112867 0.0 -0.3826834323650897
  outer loop
    vertex 5.332050807568874 1.9999999999999998 4.999999999999999
    vertex 5.531851652578133 0.0 4.517638090205041
    vertex 5.332050807568874 0.0 4.999999999999999
  endloop
endfacet
facet normal -0.9238795325112867 0.0 -0.3826834323650897
  outer loop
    vertex 5.531851652578133 0.0 4.517638090205041
    vertex 5.332050807568874 1.9999999999999998 4.999999999999999
    vertex 5.531851652578133 1.9999999999999998 4.517638090205041
  endloop
endfacet
facet normal -0.793353340291236 0.0 -0.6087614290087195
  outer loop
    vertex 5.199999999999997 1.9999999999999998 5.172091962927932
    vertex 5.332050807568874 0.0 4.999999999999999
    vertex 5.199999999999997 0.0 5.172091962927932
  endloop
endfacet
facet normal -0.793353340291236 0.0 -0.6087614290087195
  outer loop
    vertex 5.332050807568874 0.0 4.999999999999999
    vertex 5.199999999999997 1.9999999999999998 5.172091962927932
    vertex 5.332050807568874 1.9999999999999998 4.999999999999999
  endloop
endfacet
facet normal -0.8032063140062676 0.0 0.5957009460630941
  outer loop
    vertex 6.428427124746185 1.9999999999999998 6.828427124746188
    vertex 5.199999999999997 0.0 5.172091962927932
    vertex 6.428427124746185 0.0 6.828427124746188
  endloop
endfacet
facet normal -0.8032063140062676 0.0 0.5957009460630941
  outer loop
    vertex 5.199999999999997 0.0 5.172091962927932
    vertex 6.428427124746185 1.9999999999999998 6.828427124746188
    vertex 5.199999999999997 1.9999999999999998 5.172091962927932
  endloop
endfacet
facet normal 0.793353340291235 -0.0 0.6087614290087211
  outer loop
    vertex 7.0641016151377505 1.9999999999999998 5.999999999999998
    vertex 6.428427124746185 0.0 6.828427124746188
    vertex 7.0641016151377505 0.0 5.999999999999998
  endloop
endfacet
facet normal 0.793353340291235 -0.0 0.6087614290087211
  outer loop
    vertex 6.428427124746185 0.0 6.828427124746188
    vertex 7.0641016151377505 1.9999999999999998 5.999999999999998
    vertex 6.428427124746185 1.9999999999999998 6.828427124746188
  endloop
endfacet
facet normal 0.9238795325112871 -0.0 0.382683432365089
  outer loop
    vertex 7.463703305156267 1.9999999999999998 5.035276180410082
    vertex 7.0641016151377505 0.0 5.999999999999998
    vertex 7.463703305156267 0.0 5.035276180410082
  endloop
endfacet
facet normal 0.9238795325112871 -0.0 0.382683432365089
  outer loop
    vertex 7.0641016151377505 0.0 5.999999999999998
    vertex 7.463703305156267 1.9999999999999998 5.035276180410082
    vertex 7.0641016151377505 1.9999999999999998 5.999999999999998
  endloop
endfacet
facet normal 0.99144486137381 -0.0 0.13052619222005454
  outer loop
    vertex 7.599999999999997 1.9999999999999998 3.9999999999999996
    vertex 7.463703305156267 0.0 5.035276180410082
    vertex 7.599999999999997 0.0 3.9999999999999996
  endloop
endfacet
facet normal 0.99144486137381 -0.0 0.13052619222005454
  outer loop
    vertex 7.463703305156267 0.0 5.035276180410082
    vertex 7.599999999999997 1.9999999999999998 3.9999999999999996
    vertex 7.463703305156267 1.9999999999999998 5.035276180410082
  endloop
endfacet
facet normal 1.0261212985203902e-16 -1.0 -7.61802437738535e-18
  outer loop
    vertex 61.6 33.5 3.9999999999999996
    vertex 5.399999999999997 33.49999999999999 6.399704340039019e-16
    vertex 61.6 33.5 0.0
  endloop
endfacet
facet normal 1.0261212985203902e-16 -1.0 -7.61802437738535e-18
  outer loop
    vertex 5.399999999999997 33.49999999999999 6.399704340039019e-16
    vertex 61.6 33.5 3.9999999999999996
    vertex 5.399999999999997 33.49999999999999 3.164043861919518
  endloop
endfacet
facet normal 1.0261212985203902e-16 -1.0 -7.61802437738535e-18
  outer loop
    vertex 5.399999999999997 33.49999999999999 3.164043861919518
    vertex 61.6 33.5 3.9999999999999996
    vertex 5.531851652578133 33.49999999999999 3.482361909794959
  endloop
endfacet
facet normal 1.0261212985203902e-16 -1.0 -7.61802437738535e-18
  outer loop
    vertex 5.531851652578133 33.49999999999999 3.482361909794959
    vertex 61.6 33.5 3.9999999999999996
    vertex 7.599999999999997 33.49999999999999 3.9999999999999996
  endloop
endfacet
facet normal 1.0261212985203902e-16 -1.0 -7.61802437738535e-18
  outer loop
    vertex 5.531851652578133 33.49999999999999 3.482361909794959
    vertex 7.599999999999997 33.49999999999999 3.9999999999999996
    vertex 5.599999999999997 33.49999999999999 4.0
  endloop
endfacet
facet normal 1.0261212985203902e-16 -1.0 -7.61802437738535e-18
  outer loop
    vertex 7.599999999999997 33.49999999999999 3.9999999999999996
    vertex 61.6 33.5 3.9999999999999996
    vertex 60.6 33.5 3.9999999999999996
  endloop
endfacet
facet normal 1.0261212985203902e-16 -1.0 -7.61802437738535e-18
  outer loop
    vertex 7.599999999999997 33.49999999999999 3.9999999999999996
    vertex 60.6 33.5 3.9999999999999996
    vertex 59.6 33.5 3.9999999999999996
  endloop
endfacet
facet normal 1.0261212985203902e-16 -1.0 -7.61802437738535e-18
  outer loop
    vertex 5.599999999999997 33.49999999999999 4.0
    vertex 7.599999999999997 33.49999999999999 3.9999999999999996
    vertex 7.463703305156267 33.49999999999999 5.035276180410082
  endloop
endfacet
facet normal 1.0261212985203902e-16 -1.0 -7.61802437738535e-18
  outer loop
    vertex 5.599999999999997 33.49999999999999 4.0
    vertex 7.463703305156267 33.49999999999999 5.035276180410082
    vertex 5.531851652578133 33.49999999999999 4.517638090205041
  endloop
endfacet
facet normal 1.0261212985203902e-16 -1.0 -7.61802437738535e-18
  outer loop
    vertex 5.531851652578133 33.49999999999999 4.517638090205041
    vertex 7.463703305156267 33.49999999999999 5.035276180410082
    vertex 5.332050807568874 33.49999999999999 4.999999999999999
  endloop
endfacet
facet normal 1.0261212985203902e-16 -1.0 -7.61802437738535e-18
  outer loop
    vertex 5.332050807568874 33.49999999999999 4.999999999999999
    vertex 7.463703305156267 33.49999999999999 5.035276180410082
    vertex 5.199999999999997 33.49999999999999 5.172091962927932
  endloop
endfacet
facet normal 1.0261212985203902e-16 -1.0 -7.61802437738535e-18
  outer loop
    vertex 5.199999999999997 33.49999999999999 5.172091962927932
    vertex 7.463703305156267 33.49999999999999 5.035276180410082
    vertex 7.0641016151377505 33.49999999999999 5.999999999999998
  endloop
endfacet
facet normal 1.0261212985203902e-16 -1.0 -7.61802437738535e-18
  outer loop
    vertex 5.199999999999997 33.49999999999999 5.172091962927932
    vertex 7.0641016151377505 33.49999999999999 5.999999999999998
    vertex 6.428427124746185 33.49999999999999 6.828427124746188
  endloop
endfacet
facet normal -0.9914448613738105 0.0 0.1305261922200518
  outer loop
    vertex 5.599999999999997 33.49999999999999 4.0
    vertex 5.531851652578133 31.5 3.482361909794959
    vertex 5.599999999999997 31.5 4.0
  endloop
endfacet
facet normal -0.9914448613738105 0.0 0.1305261922200518
  outer loop
    vertex 5.531851652578133 31.5 3.482361909794959
    vertex 5.599999999999997 33.49999999999999 4.0
    vertex 5.531851652578133 33.49999999999999 3.482361909794959
  endloop
endfacet
facet normal -0.9914448613738105 0.0 -0.13052619222005216
  outer loop
    vertex 5.531851652578133 33.49999999999999 4.517638090205041
    vertex 5.599999999999997 31.5 4.0
    vertex 5.531851652578133 31.5 4.517638090205041
  endloop
endfacet
facet normal -0.9914448613738105 0.0 -0.13052619222005216
  outer loop
    vertex 5.599999999999997 31.5 4.0
    vertex 5.531851652578133 33.49999999999999 4.517638090205041
    vertex 5.599999999999997 33.49999999999999 4.0
  endloop
endfacet
facet normal -0.9238795325112867 0.0 -0.3826834323650897
  outer loop
    vertex 5.332050807568874 33.49999999999999 4.999999999999999
    vertex 5.531851652578133 31.5 4.517638090205041
    vertex 5.332050807568874 31.5 4.999999999999999
  endloop
endfacet
facet normal -0.9238795325112867 0.0 -0.3826834323650897
  outer loop
    vertex 5.531851652578133 31.5 4.517638090205041
    vertex 5.332050807568874 33.49999999999999 4.999999999999999
    vertex 5.531851652578133 33.49999999999999 4.517638090205041
  endloop
endfacet
facet normal -0.793353340291236 0.0 -0.6087614290087195
  outer loop
    vertex 5.199999999999997 33.49999999999999 5.172091962927932
    vertex 5.332050807568874 31.5 4.999999999999999
    vertex 5.199999999999997 31.5 5.172091962927932
  endloop
endfacet
facet normal -0.793353340291236 0.0 -0.6087614290087195
  outer loop
    vertex 5.332050807568874 31.5 4.999999999999999
    vertex 5.199999999999997 33.49999999999999 5.172091962927932
    vertex 5.332050807568874 33.49999999999999 4.999999999999999
  endloop
endfacet
facet normal -0.8032063140062676 0.0 0.595700946063094
  outer loop
    vertex 6.428427124746185 33.49999999999999 6.828427124746188
    vertex 5.199999999999997 31.5 5.172091962927932
    vertex 6.428427124746185 31.5 6.828427124746188
  endloop
endfacet
facet normal -0.8032063140062676 0.0 0.595700946063094
  outer loop
    vertex 5.199999999999997 31.5 5.172091962927932
    vertex 6.428427124746185 33.49999999999999 6.828427124746188
    vertex 5.199999999999997 33.49999999999999 5.172091962927932
  endloop
endfacet
facet normal 0.7933533402912349 -0.0 0.608761429008721
  outer loop
    vertex 7.0641016151377505 33.49999999999999 5.999999999999998
    vertex 6.428427124746185 31.5 6.828427124746188
    vertex 7.0641016151377505 31.5 5.999999999999998
  endloop
endfacet
facet normal 0.7933533402912349 -0.0 0.608761429008721
  outer loop
    vertex 6.428427124746185 31.5 6.828427124746188
    vertex 7.0641016151377505 33.49999999999999 5.999999999999998
    vertex 6.428427124746185 33.49999999999999 6.828427124746188
  endloop
endfacet
facet normal 0.9238795325112871 -0.0 0.382683432365089
  outer loop
    vertex 7.463703305156267 33.49999999999999 5.035276180410082
    vertex 7.0641016151377505 31.5 5.999999999999998
    vertex 7.463703305156267 31.5 5.035276180410082
  endloop
endfacet
facet normal 0.9238795325112871 -0.0 0.382683432365089
  outer loop
    vertex 7.0641016151377505 31.5 5.999999999999998
    vertex 7.463703305156267 33.49999999999999 5.035276180410082
    vertex 7.0641016151377505 33.49999999999999 5.999999999999998
  endloop
endfacet
facet normal 0.99144486137381 -0.0 0.13052619222005454
  outer loop
    vertex 7.599999999999997 33.49999999999999 3.9999999999999996
    vertex 7.463703305156267 31.5 5.035276180410082
    vertex 7.599999999999997 31.5 3.9999999999999996
  endloop
endfacet
facet normal 0.99144486137381 -0.0 0.13052619222005454
  outer loop
    vertex 7.463703305156267 31.5 5.035276180410082
    vertex 7.599999999999997 33.49999999999999 3.9999999999999996
    vertex 7.463703305156267 33.49999999999999 5.035276180410082
  endloop
endfacet
facet normal -0.9238795325112868 -9.719226828531782e-17 0.38268343236508945
  outer loop
    vertex 5.531851652578133 31.5 3.482361909794959
    vertex 5.399999999999997 33.49999999999999 3.164043861919518
    vertex 5.399999999999997 31.499999999999993 3.1640438619195166
  endloop
endfacet
facet normal -0.9238795325112868 -9.719226828531782e-17 0.38268343236508945
  outer loop
    vertex 5.399999999999997 33.49999999999999 3.164043861919518
    vertex 5.531851652578133 31.5 3.482361909794959
    vertex 5.531851652578133 33.49999999999999 3.482361909794959
  endloop
endfacet
facet normal -0.9238795325112868 1.3792808458570578e-17 0.3826834323650896
  outer loop
    vertex 5.399999999999997 31.499999999999993 3.1640438619195166
    vertex 5.332050807568874 1.9999999999999998 3.0000000000000004
    vertex 5.399999999999997 1.9999999999999998 3.164043861919518
  endloop
endfacet
facet normal -0.9238795325112868 1.3792808458570578e-17 0.3826834323650896
  outer loop
    vertex 5.332050807568874 1.9999999999999998 3.0000000000000004
    vertex 5.399999999999997 31.499999999999993 3.1640438619195166
    vertex 5.332050807568874 31.499999999999993 2.9999999999999996
  endloop
endfacet
facet normal 2.509087387039464e-16 -1.0 6.99538502976307e-16
  outer loop
    vertex 7.599999999999997 31.5 3.9999999999999996
    vertex 5.531851652578133 31.5 3.482361909794959
    vertex 5.399999999999997 31.499999999999993 3.1640438619195166
  endloop
endfacet
facet normal 2.509087387039464e-16 -1.0 6.99538502976307e-16
  outer loop
    vertex 5.531851652578133 31.5 3.482361909794959
    vertex 7.599999999999997 31.5 3.9999999999999996
    vertex 5.599999999999997 31.5 4.0
  endloop
endfacet
facet normal 2.509087387039464e-16 -1.0 6.99538502976307e-16
  outer loop
    vertex 5.599999999999997 31.5 4.0
    vertex 7.599999999999997 31.5 3.9999999999999996
    vertex 7.463703305156267 31.5 5.035276180410082
  endloop
endfacet
facet normal 2.509087387039464e-16 -1.0 6.99538502976307e-16
  outer loop
    vertex 5.599999999999997 31.5 4.0
    vertex 7.463703305156267 31.5 5.035276180410082
    vertex 5.531851652578133 31.5 4.517638090205041
  endloop
endfacet
facet normal 2.509087387039464e-16 -1.0 6.99538502976307e-16
  outer loop
    vertex 5.531851652578133 31.5 4.517638090205041
    vertex 7.463703305156267 31.5 5.035276180410082
    vertex 5.332050807568874 31.5 4.999999999999999
  endloop
endfacet
facet normal 2.509087387039464e-16 -1.0 6.99538502976307e-16
  outer loop
    vertex 5.332050807568874 31.5 4.999999999999999
    vertex 7.463703305156267 31.5 5.035276180410082
    vertex 5.199999999999997 31.5 5.172091962927932
  endloop
endfacet
facet normal 2.509087387039464e-16 -1.0 6.99538502976307e-16
  outer loop
    vertex 5.199999999999997 31.5 5.172091962927932
    vertex 7.463703305156267 31.5 5.035276180410082
    vertex 7.0641016151377505 31.5 5.999999999999998
  endloop
endfacet
facet normal 2.509087387039464e-16 -1.0 6.99538502976307e-16
  outer loop
    vertex 5.199999999999997 31.5 5.172091962927932
    vertex 7.0641016151377505 31.5 5.999999999999998
    vertex 6.428427124746185 31.5 6.828427124746188
  endloop
endfacet
facet normal -0.0 1.0 -0.0
  outer loop
    vertex 5.531851652578133 1.9999999999999998 3.482361909794959
    vertex 7.599999999999997 1.9999999999999998 3.9999999999999996
    vertex 5.399999999999997 1.9999999999999998 3.164043861919518
  endloop
endfacet
facet normal -0.0 1.0 -0.0
  outer loop
    vertex 7.599999999999997 1.9999999999999998 3.9999999999999996
    vertex 5.531851652578133 1.9999999999999998 3.482361909794959
    vertex 5.599999999999997 1.9999999999999998 4.0
  endloop
endfacet
facet normal -0.0 1.0 -0.0
  outer loop
    vertex 7.599999999999997 1.9999999999999998 3.9999999999999996
    vertex 5.599999999999997 1.9999999999999998 4.0
    vertex 7.463703305156267 1.9999999999999998 5.035276180410082
  endloop
endfacet
facet normal -0.0 1.0 -0.0
  outer loop
    vertex 7.463703305156267 1.9999999999999998 5.035276180410082
    vertex 5.599999999999997 1.9999999999999998 4.0
    vertex 5.531851652578133 1.9999999999999998 4.517638090205041
  endloop
endfacet
facet normal -0.0 1.0 -0.0
  outer loop
    vertex 7.463703305156267 1.9999999999999998 5.035276180410082
    vertex 5.531851652578133 1.9999999999999998 4.517638090205041
    vertex 5.332050807568874 1.9999999999999998 4.999999999999999
  endloop
endfacet
facet normal -0.0 1.0 -0.0
  outer loop
    vertex 7.463703305156267 1.9999999999999998 5.035276180410082
    vertex 5.332050807568874 1.9999999999999998 4.999999999999999
    vertex 5.199999999999997 1.9999999999999998 5.172091962927932
  endloop
endfacet
facet normal -0.0 1.0 -0.0
  outer loop
    vertex 7.463703305156267 1.9999999999999998 5.035276180410082
    vertex 5.199999999999997 1.9999999999999998 5.172091962927932
    vertex 7.0641016151377505 1.9999999999999998 5.999999999999998
  endloop
endfacet
facet normal -0.0 1.0 -0.0
  outer loop
    vertex 7.0641016151377505 1.9999999999999998 5.999999999999998
    vertex 5.199999999999997 1.9999999999999998 5.172091962927932
    vertex 6.428427124746185 1.9999999999999998 6.828427124746188
  endloop
endfacet
facet normal -0.35520147507126604 1.596473707831651e-17 0.9347897689358805
  outer loop
    vertex 7.599999999999997 1.9999999999999998 3.9999999999999996
    vertex 5.399999999999997 31.499999999999993 3.1640438619195166
    vertex 5.399999999999997 1.9999999999999998 3.164043861919518
  endloop
endfacet
facet normal -0.35520147507126604 1.596473707831651e-17 0.9347897689358805
  outer loop
    vertex 5.399999999999997 31.499999999999993 3.1640438619195166
    vertex 7.599999999999997 1.9999999999999998 3.9999999999999996
    vertex 7.599999999999997 31.5 3.9999999999999996
  endloop
endfacet
facet normal 0.0 -1.0 0.0
  outer loop
    vertex 5.3999999999999915 31.499999999999993 4.3156968548876055e-16
    vertex 5.014213562373092 31.499999999999993 2.585786437626904
    vertex 1.7999999999999978 31.499999999999993 1.55279268405149e-15
  endloop
endfacet
facet normal 0.0 -1.0 0.0
  outer loop
    vertex 5.014213562373092 31.499999999999993 2.585786437626904
    vertex 5.3999999999999915 31.499999999999993 4.3156968548876055e-16
    vertex 5.332050807568874 31.499999999999993 2.9999999999999996
  endloop
endfacet
facet normal 0.0 -1.0 0.0
  outer loop
    vertex 5.332050807568874 31.499999999999993 2.9999999999999996
    vertex 5.3999999999999915 31.499999999999993 4.3156968548876055e-16
    vertex 5.399999999999997 31.499999999999993 3.1640438619195166
  endloop
endfacet
facet normal 0.0 -1.0 0.0
  outer loop
    vertex 1.7999999999999978 31.499999999999993 1.55279268405149e-15
    vertex 5.014213562373092 31.499999999999993 2.585786437626904
    vertex 4.599999999999996 31.499999999999993 2.2679491924311224
  endloop
endfacet
facet normal 0.0 -1.0 0.0
  outer loop
    vertex 1.7999999999999978 31.499999999999993 1.55279268405149e-15
    vertex 4.599999999999996 31.499999999999993 2.2679491924311224
    vertex 4.1176380902050385 31.499999999999993 2.068148347421863
  endloop
endfacet
facet normal 0.0 -1.0 0.0
  outer loop
    vertex 1.7999999999999978 31.499999999999993 1.55279268405149e-15
    vertex 4.1176380902050385 31.499999999999993 2.068148347421863
    vertex 3.599999999999997 31.499999999999993 1.9999999999999998
  endloop
endfacet
facet normal 0.0 -1.0 0.0
  outer loop
    vertex 1.7999999999999978 31.499999999999993 1.55279268405149e-15
    vertex 1.8679491924311213 31.499999999999993 2.9999999999999996
    vertex 1.799999999999998 31.499999999999993 3.1640438619195166
  endloop
endfacet
facet normal 0.0 -1.0 0.0
  outer loop
    vertex 1.8679491924311213 31.499999999999993 2.9999999999999996
    vertex 1.7999999999999978 31.499999999999993 1.55279268405149e-15
    vertex 2.1857864376269034 31.499999999999993 2.5857864376269046
  endloop
endfacet
facet normal 0.0 -1.0 0.0
  outer loop
    vertex 2.1857864376269034 31.499999999999993 2.5857864376269046
    vertex 1.7999999999999978 31.499999999999993 1.55279268405149e-15
    vertex 2.599999999999998 31.499999999999993 2.2679491924311224
  endloop
endfacet
facet normal 0.0 -1.0 0.0
  outer loop
    vertex 2.599999999999998 31.499999999999993 2.2679491924311224
    vertex 1.7999999999999978 31.499999999999993 1.55279268405149e-15
    vertex 3.082361909794956 31.499999999999993 2.068148347421863
  endloop
endfacet
facet normal 0.0 -1.0 0.0
  outer loop
    vertex 3.082361909794956 31.499999999999993 2.068148347421863
    vertex 1.7999999999999978 31.499999999999993 1.55279268405149e-15
    vertex 3.599999999999997 31.499999999999993 1.9999999999999998
  endloop
endfacet
facet normal 1.0 -1.4099832412739471e-15 -8.912539160683823e-16
  outer loop
    vertex 5.399999999999997 33.49999999999999 6.399704340039019e-16
    vertex 5.399999999999997 31.499999999999993 3.1640438619195166
    vertex 5.3999999999999915 31.499999999999993 4.3156968548876055e-16
  endloop
endfacet
facet normal 1.0 -1.4099832412739471e-15 -8.912539160683823e-16
  outer loop
    vertex 5.399999999999997 31.499999999999993 3.1640438619195166
    vertex 5.399999999999997 33.49999999999999 6.399704340039019e-16
    vertex 5.399999999999997 33.49999999999999 3.164043861919518
  endloop
endfacet
facet normal -1.0 -5.974505259635375e-18 5.57033697542739e-17
  outer loop
    vertex 1.799999999999998 31.499999999999993 3.1640438619195166
    vertex 1.799999999999998 1.9999999999999998 1.2866097076624784e-15
    vertex 1.799999999999998 1.9999999999999998 3.164043861919518
  endloop
endfacet
facet normal -1.0 -5.974505259635375e-18 5.57033697542739e-17
  outer loop
    vertex 1.799999999999998 1.9999999999999998 1.2866097076624784e-15
    vertex 1.799999999999998 31.499999999999993 3.1640438619195166
    vertex 1.7999999999999978 31.499999999999993 1.55279268405149e-15
  endloop
endfacet
facet normal -0.0 1.0 -0.0
  outer loop
    vertex 1.799999999999998 1.9999999999999998 1.2866097076624784e-15
    vertex 2.1857864376269034 1.9999999999999998 2.5857864376269055
    vertex 5.399999999999997 1.9999999999999998 2.082156286467478e-15
  endloop
endfacet
facet normal -0.0 1.0 -0.0
  outer loop
    vertex 2.1857864376269034 1.9999999999999998 2.5857864376269055
    vertex 1.799999999999998 1.9999999999999998 1.2866097076624784e-15
    vertex 1.8679491924311213 1.9999999999999998 3.0000000000000004
  endloop
endfacet
facet normal -0.0 1.0 -0.0
  outer loop
    vertex 1.8679491924311213 1.9999999999999998 3.0000000000000004
    vertex 1.799999999999998 1.9999999999999998 1.2866097076624784e-15
    vertex 1.799999999999998 1.9999999999999998 3.164043861919518
  endloop
endfacet
facet normal -0.0 1.0 -0.0
  outer loop
    vertex 5.399999999999997 1.9999999999999998 2.082156286467478e-15
    vertex 2.1857864376269034 1.9999999999999998 2.5857864376269055
    vertex 2.599999999999998 1.9999999999999998 2.2679491924311237
  endloop
endfacet
facet normal -0.0 1.0 -0.0
  outer loop
    vertex 5.399999999999997 1.9999999999999998 2.082156286467478e-15
    vertex 2.599999999999998 1.9999999999999998 2.2679491924311237
    vertex 3.082361909794956 1.9999999999999998 2.0681483474218645
  endloop
endfacet
facet normal -0.0 1.0 -0.0
  outer loop
    vertex 5.399999999999997 1.9999999999999998 2.082156286467478e-15
    vertex 3.082361909794956 1.9999999999999998 2.0681483474218645
    vertex 3.599999999999997 1.9999999999999998 2.000000000000001
  endloop
endfacet
facet normal -0.0 1.0 -0.0
  outer loop
    vertex 5.399999999999997 1.9999999999999998 2.082156286467478e-15
    vertex 5.332050807568874 1.9999999999999998 3.0000000000000004
    vertex 5.399999999999997 1.9999999999999998 3.164043861919518
  endloop
endfacet
facet normal -0.0 1.0 -0.0
  outer loop
    vertex 5.332050807568874 1.9999999999999998 3.0000000000000004
    vertex 5.399999999999997 1.9999999999999998 2.082156286467478e-15
    vertex 5.014213562373092 1.9999999999999998 2.5857864376269055
  endloop
endfacet
facet normal -0.0 1.0 -0.0
  outer loop
    vertex 5.014213562373092 1.9999999999999998 2.5857864376269055
    vertex 5.399999999999997 1.9999999999999998 2.082156286467478e-15
    vertex 4.599999999999996 1.9999999999999998 2.2679491924311237
  endloop
endfacet
facet normal -0.0 1.0 -0.0
  outer loop
    vertex 4.599999999999996 1.9999999999999998 2.2679491924311237
    vertex 5.399999999999997 1.9999999999999998 2.082156286467478e-15
    vertex 4.1176380902050385 1.9999999999999998 2.068148347421864
  endloop
endfacet
facet normal -0.0 1.0 -0.0
  outer loop
    vertex 4.1176380902050385 1.9999999999999998 2.068148347421864
    vertex 5.399999999999997 1.9999999999999998 2.082156286467478e-15
    vertex 3.599999999999997 1.9999999999999998 2.000000000000001
  endloop
endfacet
facet normal -1.0 0.0 0.0
  outer loop
    vertex 56.50000000000001 31.500000000000004 3.999999999999999
    vertex 56.50000000000001 1.9999999999999996 2.0000000000000018
    vertex 56.50000000000001 1.9999999999999996 3.999999999999999
  endloop
endfacet
facet normal -1.0 0.0 0.0
  outer loop
    vertex 56.50000000000001 1.9999999999999996 2.0000000000000018
    vertex 56.50000000000001 31.500000000000004 3.999999999999999
    vertex 56.50000000000001 31.500000000000004 2.0000000000000018
  endloop
endfacet
facet normal -7.049916206369756e-16 0.0 -1.0
  outer loop
    vertex 59.50000000000001 31.500000000000004 1.9999999999999998
    vertex 56.50000000000001 1.9999999999999996 2.0000000000000018
    vertex 56.50000000000001 31.500000000000004 2.0000000000000018
  endloop
endfacet
facet normal -7.049916206369756e-16 0.0 -1.0
  outer loop
    vertex 56.50000000000001 1.9999999999999996 2.0000000000000018
    vertex 59.50000000000001 31.500000000000004 1.9999999999999998
    vertex 59.50000000000001 1.9999999999999996 1.9999999999999998
  endloop
endfacet
facet normal -1.4091325368050511e-16 1.0 1.4952323318385796e-17
  outer loop
    vertex 8.850000000000001 31.5 2.114974861910923e-15
    vertex 18.7 31.5 1.4999999999999998
    vertex 18.7 31.5 -4.229949723821846e-15
  endloop
endfacet
facet normal -1.4091325368050511e-16 1.0 1.4952323318385796e-17
  outer loop
    vertex 18.7 31.5 1.4999999999999998
    vertex 8.850000000000001 31.5 2.114974861910923e-15
    vertex 8.850000000000001 31.5 1.9999999999999998
  endloop
endfacet
facet normal -1.4091325368050511e-16 1.0 1.4952323318385796e-17
  outer loop
    vertex 18.7 31.5 1.4999999999999998
    vertex 8.850000000000001 31.5 1.9999999999999998
    vertex 25.599999999999998 31.5 1.4999999999999998
  endloop
endfacet
facet normal -1.4091325368050511e-16 1.0 1.4952323318385796e-17
  outer loop
    vertex 25.599999999999998 31.5 1.4999999999999998
    vertex 8.850000000000001 31.5 1.9999999999999998
    vertex 42.5 31.500000000000004 1.4999999999999998
  endloop
endfacet
facet normal -1.4091325368050511e-16 1.0 1.4952323318385796e-17
  outer loop
    vertex 42.5 31.500000000000004 1.4999999999999998
    vertex 8.850000000000001 31.5 1.9999999999999998
    vertex 48.650000000000006 31.500000000000004 1.4999999999999998
  endloop
endfacet
facet normal -1.4091325368050511e-16 1.0 1.4952323318385796e-17
  outer loop
    vertex 49.650000000000006 31.500000000000004 2.114974861910923e-15
    vertex 59.50000000000001 31.500000000000004 1.9999999999999998
    vertex 59.50000000000001 31.500000000000004 0.0
  endloop
endfacet
facet normal -1.4091325368050511e-16 1.0 1.4952323318385796e-17
  outer loop
    vertex 59.50000000000001 31.500000000000004 1.9999999999999998
    vertex 49.650000000000006 31.500000000000004 2.114974861910923e-15
    vertex 49.650000000000006 31.500000000000004 1.000000000000002
  endloop
endfacet
facet normal -1.4091325368050511e-16 1.0 1.4952323318385796e-17
  outer loop
    vertex 59.50000000000001 31.500000000000004 1.9999999999999998
    vertex 49.650000000000006 31.500000000000004 1.000000000000002
    vertex 48.650000000000006 31.500000000000004 1.4999999999999998
  endloop
endfacet
facet normal -1.4091325368050511e-16 1.0 1.4952323318385796e-17
  outer loop
    vertex 59.50000000000001 31.500000000000004 1.9999999999999998
    vertex 48.650000000000006 31.500000000000004 1.4999999999999998
    vertex 8.850000000000001 31.5 1.9999999999999998
  endloop
endfacet
facet normal -1.4091325368050511e-16 1.0 1.4952323318385796e-17
  outer loop
    vertex 59.50000000000001 31.500000000000004 1.9999999999999998
    vertex 8.850000000000001 31.5 1.9999999999999998
    vertex 12.7 31.5 1.9999999999999998
  endloop
endfacet
facet normal -1.4091325368050511e-16 1.0 1.4952323318385796e-17
  outer loop
    vertex 59.50000000000001 31.500000000000004 1.9999999999999998
    vertex 12.7 31.5 1.9999999999999998
    vertex 56.50000000000001 31.500000000000004 2.0000000000000018
  endloop
endfacet
facet normal -1.4091325368050511e-16 1.0 1.4952323318385796e-17
  outer loop
    vertex 56.50000000000001 31.500000000000004 2.0000000000000018
    vertex 12.7 31.5 1.9999999999999998
    vertex 13.700000000000001 31.5 3.0
  endloop
endfacet
facet normal -1.4091325368050511e-16 1.0 1.4952323318385796e-17
  outer loop
    vertex 56.50000000000001 31.500000000000004 2.0000000000000018
    vertex 13.700000000000001 31.5 3.0
    vertex 56.50000000000001 31.500000000000004 3.999999999999999
  endloop
endfacet
facet normal -1.4091325368050511e-16 1.0 1.4952323318385796e-17
  outer loop
    vertex 56.50000000000001 31.500000000000004 3.999999999999999
    vertex 13.700000000000001 31.5 3.0
    vertex 13.700000000000001 31.5 3.9999999999999996
  endloop
endfacet
facet normal -1.4091325368050511e-16 1.0 1.4952323318385796e-17
  outer loop
    vertex 25.599999999999998 31.5 1.4999999999999998
    vertex 42.5 31.500000000000004 7.049916206369744e-15
    vertex 25.599999999999998 31.5 7.049916206369744e-15
  endloop
endfacet
facet normal -1.4091325368050511e-16 1.0 1.4952323318385796e-17
  outer loop
    vertex 42.5 31.500000000000004 7.049916206369744e-15
    vertex 25.599999999999998 31.5 1.4999999999999998
    vertex 42.5 31.500000000000004 1.4999999999999998
  endloop
endfacet
facet normal 1.0 -0.0 -0.0
  outer loop
    vertex 59.50000000000001 31.500000000000004 0.0
    vertex 59.50000000000001 1.9999999999999996 1.9999999999999998
    vertex 59.50000000000001 1.9999999999999996 0.0
  endloop
endfacet
facet normal 1.0 -0.0 -0.0
  outer loop
    vertex 59.50000000000001 1.9999999999999996 1.9999999999999998
    vertex 59.50000000000001 31.500000000000004 0.0
    vertex 59.50000000000001 31.500000000000004 1.9999999999999998
  endloop
endfacet
facet normal -3.1577290305030086e-16 -1.0 1.2236422471379624e-15
  outer loop
    vertex 59.50000000000001 1.9999999999999996 1.9999999999999998
    vertex 49.650000000000006 1.9999999999999996 2.114974861910923e-15
    vertex 59.50000000000001 1.9999999999999996 0.0
  endloop
endfacet
facet normal -3.1577290305030086e-16 -1.0 1.2236422471379624e-15
  outer loop
    vertex 49.650000000000006 1.9999999999999996 2.114974861910923e-15
    vertex 59.50000000000001 1.9999999999999996 1.9999999999999998
    vertex 49.650000000000006 1.9999999999999998 1.000000000000002
  endloop
endfacet
facet normal -3.1577290305030086e-16 -1.0 1.2236422471379624e-15
  outer loop
    vertex 49.650000000000006 1.9999999999999998 1.000000000000002
    vertex 59.50000000000001 1.9999999999999996 1.9999999999999998
    vertex 48.650000000000006 1.9999999999999998 1.4999999999999998
  endloop
endfacet
facet normal -3.1577290305030086e-16 -1.0 1.2236422471379624e-15
  outer loop
    vertex 48.650000000000006 1.9999999999999998 1.4999999999999998
    vertex 59.50000000000001 1.9999999999999996 1.9999999999999998
    vertex 42.5 2.0000000000000018 1.4999999999999998
  endloop
endfacet
facet normal -3.1577290305030086e-16 -1.0 1.2236422471379624e-15
  outer loop
    vertex 42.5 2.0000000000000018 1.4999999999999998
    vertex 59.50000000000001 1.9999999999999996 1.9999999999999998
    vertex 25.599999999999998 2.0000000000000018 1.4999999999999998
  endloop
endfacet
facet normal -3.1577290305030086e-16 -1.0 1.2236422471379624e-15
  outer loop
    vertex 25.599999999999998 2.0000000000000018 1.4999999999999998
    vertex 59.50000000000001 1.9999999999999996 1.9999999999999998
    vertex 18.7 2.0000000000000018 1.4999999999999998
  endloop
endfacet
facet normal -3.1577290305030086e-16 -1.0 1.2236422471379624e-15
  outer loop
    vertex 56.50000000000001 1.9999999999999996 2.0000000000000018
    vertex 12.7 2.0000000000000178 1.9999999999999998
    vertex 59.50000000000001 1.9999999999999996 1.9999999999999998
  endloop
endfacet
facet normal -3.1577290305030086e-16 -1.0 1.2236422471379624e-15
  outer loop
    vertex 12.7 2.0000000000000178 1.9999999999999998
    vertex 56.50000000000001 1.9999999999999996 2.0000000000000018
    vertex 13.700000000000001 2.000000000000016 3.0
  endloop
endfacet
facet normal -3.1577290305030086e-16 -1.0 1.2236422471379624e-15
  outer loop
    vertex 13.700000000000001 2.000000000000016 3.0
    vertex 56.50000000000001 1.9999999999999996 2.0000000000000018
    vertex 56.50000000000001 1.9999999999999996 3.999999999999999
  endloop
endfacet
facet normal -3.1577290305030086e-16 -1.0 1.2236422471379624e-15
  outer loop
    vertex 13.700000000000001 2.000000000000016 3.0
    vertex 56.50000000000001 1.9999999999999996 3.999999999999999
    vertex 13.700000000000001 2.000000000000016 3.9999999999999996
  endloop
endfacet
facet normal -3.1577290305030086e-16 -1.0 1.2236422471379624e-15
  outer loop
    vertex 18.7 2.0000000000000018 1.4999999999999998
    vertex 8.850000000000001 2.000000000000019 2.114974861910923e-15
    vertex 18.7 2.0000000000000018 -4.229949723821846e-15
  endloop
endfacet
facet normal -3.1577290305030086e-16 -1.0 1.2236422471379624e-15
  outer loop
    vertex 8.850000000000001 2.000000000000019 2.114974861910923e-15
    vertex 18.7 2.0000000000000018 1.4999999999999998
    vertex 8.850000000000001 2.000000000000019 1.9999999999999998
  endloop
endfacet
facet normal -3.1577290305030086e-16 -1.0 1.2236422471379624e-15
  outer loop
    vertex 8.850000000000001 2.000000000000019 1.9999999999999998
    vertex 18.7 2.0000000000000018 1.4999999999999998
    vertex 59.50000000000001 1.9999999999999996 1.9999999999999998
  endloop
endfacet
facet normal -3.1577290305030086e-16 -1.0 1.2236422471379624e-15
  outer loop
    vertex 8.850000000000001 2.000000000000019 1.9999999999999998
    vertex 59.50000000000001 1.9999999999999996 1.9999999999999998
    vertex 12.7 2.0000000000000178 1.9999999999999998
  endloop
endfacet
facet normal -3.1577290305030086e-16 -1.0 1.2236422471379624e-15
  outer loop
    vertex 42.5 2.0000000000000018 1.4999999999999998
    vertex 25.599999999999998 2.0000000000000018 7.049916206369744e-15
    vertex 42.5 2.0000000000000018 7.049916206369744e-15
  endloop
endfacet
facet normal -3.1577290305030086e-16 -1.0 1.2236422471379624e-15
  outer loop
    vertex 25.599999999999998 2.0000000000000018 7.049916206369744e-15
    vertex 42.5 2.0000000000000018 1.4999999999999998
    vertex 25.599999999999998 2.0000000000000018 1.4999999999999998
  endloop
endfacet
facet normal 0.0 -1.0 0.0
  outer loop
    vertex 61.565925826289075 0.0 4.25881904510252
    vertex 60.6 0.0 3.9999999999999996
    vertex 61.6 0.0 3.9999999999999996
  endloop
endfacet
facet normal 0.0 -1.0 0.0
  outer loop
    vertex 60.6 0.0 3.9999999999999996
    vertex 61.565925826289075 0.0 4.25881904510252
    vertex 59.6 0.0 3.9999999999999996
  endloop
endfacet
facet normal 0.0 -1.0 0.0
  outer loop
    vertex 59.6 0.0 3.9999999999999996
    vertex 61.565925826289075 0.0 4.25881904510252
    vertex 59.63407417371093 0.0 4.25881904510252
  endloop
endfacet
facet normal 0.0 -1.0 0.0
  outer loop
    vertex 59.63407417371093 0.0 4.25881904510252
    vertex 61.565925826289075 0.0 4.25881904510252
    vertex 61.466025403784435 0.0 4.499999999999999
  endloop
endfacet
facet normal 0.0 -1.0 0.0
  outer loop
    vertex 59.63407417371093 0.0 4.25881904510252
    vertex 61.466025403784435 0.0 4.499999999999999
    vertex 59.73397459621557 0.0 4.499999999999999
  endloop
endfacet
facet normal 0.0 -1.0 0.0
  outer loop
    vertex 59.73397459621557 0.0 4.499999999999999
    vertex 61.466025403784435 0.0 4.499999999999999
    vertex 61.30710678118655 0.0 4.707106781186546
  endloop
endfacet
facet normal 0.0 -1.0 0.0
  outer loop
    vertex 59.73397459621557 0.0 4.499999999999999
    vertex 61.30710678118655 0.0 4.707106781186546
    vertex 59.892893218813455 0.0 4.707106781186546
  endloop
endfacet
facet normal 0.0 -1.0 0.0
  outer loop
    vertex 59.892893218813455 0.0 4.707106781186546
    vertex 61.30710678118655 0.0 4.707106781186546
    vertex 61.1 0.0 4.866025403784437
  endloop
endfacet
facet normal 0.0 -1.0 0.0
  outer loop
    vertex 59.892893218813455 0.0 4.707106781186546
    vertex 61.1 0.0 4.866025403784437
    vertex 60.1 0.0 4.866025403784437
  endloop
endfacet
facet normal 0.0 -1.0 0.0
  outer loop
    vertex 60.1 0.0 4.866025403784437
    vertex 61.1 0.0 4.866025403784437
    vertex 60.85881904510252 0.0 4.965925826289066
  endloop
endfacet
facet normal 0.0 -1.0 0.0
  outer loop
    vertex 60.1 0.0 4.866025403784437
    vertex 60.85881904510252 0.0 4.965925826289066
    vertex 60.34118095489748 0.0 4.965925826289066
  endloop
endfacet
facet normal 0.0 -1.0 0.0
  outer loop
    vertex 60.34118095489748 0.0 4.965925826289066
    vertex 60.85881904510252 0.0 4.965925826289066
    vertex 60.6 0.0 4.999999999999998
  endloop
endfacet
facet normal -0.0 1.0 -0.0
  outer loop
    vertex 59.63407417371093 33.5 4.25881904510252
    vertex 60.6 33.5 3.9999999999999996
    vertex 59.6 33.5 3.9999999999999996
  endloop
endfacet
facet normal -0.0 1.0 -0.0
  outer loop
    vertex 60.6 33.5 3.9999999999999996
    vertex 59.63407417371093 33.5 4.25881904510252
    vertex 61.6 33.5 3.9999999999999996
  endloop
endfacet
facet normal -0.0 1.0 -0.0
  outer loop
    vertex 61.6 33.5 3.9999999999999996
    vertex 59.63407417371093 33.5 4.25881904510252
    vertex 61.565925826289075 33.5 4.25881904510252
  endloop
endfacet
facet normal -0.0 1.0 -0.0
  outer loop
    vertex 61.565925826289075 33.5 4.25881904510252
    vertex 59.63407417371093 33.5 4.25881904510252
    vertex 59.73397459621557 33.5 4.499999999999999
  endloop
endfacet
facet normal -0.0 1.0 -0.0
  outer loop
    vertex 61.565925826289075 33.5 4.25881904510252
    vertex 59.73397459621557 33.5 4.499999999999999
    vertex 61.466025403784435 33.5 4.499999999999999
  endloop
endfacet
facet normal -0.0 1.0 -0.0
  outer loop
    vertex 61.466025403784435 33.5 4.499999999999999
    vertex 59.73397459621557 33.5 4.499999999999999
    vertex 59.892893218813455 33.5 4.707106781186546
  endloop
endfacet
facet normal -0.0 1.0 -0.0
  outer loop
    vertex 61.466025403784435 33.5 4.499999999999999
    vertex 59.892893218813455 33.5 4.707106781186546
    vertex 61.30710678118655 33.5 4.707106781186546
  endloop
endfacet
facet normal -0.0 1.0 -0.0
  outer loop
    vertex 61.30710678118655 33.5 4.707106781186546
    vertex 59.892893218813455 33.5 4.707106781186546
    vertex 60.1 33.5 4.866025403784437
  endloop
endfacet
facet normal -0.0 1.0 -0.0
  outer loop
    vertex 61.30710678118655 33.5 4.707106781186546
    vertex 60.1 33.5 4.866025403784437
    vertex 61.1 33.5 4.866025403784437
  endloop
endfacet
facet normal -0.0 1.0 -0.0
  outer loop
    vertex 61.1 33.5 4.866025403784437
    vertex 60.1 33.5 4.866025403784437
    vertex 60.34118095489748 33.5 4.965925826289066
  endloop
endfacet
facet normal -0.0 1.0 -0.0
  outer loop
    vertex 61.1 33.5 4.866025403784437
    vertex 60.34118095489748 33.5 4.965925826289066
    vertex 60.85881904510252 33.5 4.965925826289066
  endloop
endfacet
facet normal -0.0 1.0 -0.0
  outer loop
    vertex 60.85881904510252 33.5 4.965925826289066
    vertex 60.34118095489748 33.5 4.965925826289066
    vertex 60.6 33.5 4.999999999999998
  endloop
endfacet
facet normal 0.9914448613738132 -0.0 0.13052619222003087
  outer loop
    vertex 61.6 33.5 3.9999999999999996
    vertex 61.565925826289075 0.0 4.25881904510252
    vertex 61.6 0.0 3.9999999999999996
  endloop
endfacet
facet normal 0.9914448613738132 -0.0 0.13052619222003087
  outer loop
    vertex 61.565925826289075 0.0 4.25881904510252
    vertex 61.6 33.5 3.9999999999999996
    vertex 61.565925826289075 33.5 4.25881904510252
  endloop
endfacet
facet normal -0.0 -0.0 1.0
  outer loop
    vertex 61.6 0.0 3.9999999999999996
    vertex 60.6 33.5 3.9999999999999996
    vertex 60.6 0.0 3.9999999999999996
  endloop
endfacet
facet normal -0.0 -0.0 1.0
  outer loop
    vertex 60.6 33.5 3.9999999999999996
    vertex 61.6 0.0 3.9999999999999996
    vertex 61.6 33.5 3.9999999999999996
  endloop
endfacet
facet normal -0.0 -0.0 1.0
  outer loop
    vertex 60.6 0.0 3.9999999999999996
    vertex 59.6 33.5 3.9999999999999996
    vertex 59.6 0.0 3.9999999999999996
  endloop
endfacet
facet normal -0.0 -0.0 1.0
  outer loop
    vertex 59.6 33.5 3.9999999999999996
    vertex 60.6 0.0 3.9999999999999996
    vertex 60.6 33.5 3.9999999999999996
  endloop
endfacet
facet normal -0.9914448613738132 0.0 0.13052619222003087
  outer loop
    vertex 59.63407417371093 33.5 4.25881904510252
    vertex 59.6 0.0 3.9999999999999996
    vertex 59.63407417371093 0.0 4.25881904510252
  endloop
endfacet
facet normal -0.9914448613738132 0.0 0.13052619222003087
  outer loop
    vertex 59.6 0.0 3.9999999999999996
    vertex 59.63407417371093 33.5 4.25881904510252
    vertex 59.6 33.5 3.9999999999999996
  endloop
endfacet
facet normal -0.9238795325112747 0.0 0.382683432365119
  outer loop
    vertex 59.73397459621557 33.5 4.499999999999999
    vertex 59.63407417371093 0.0 4.25881904510252
    vertex 59.73397459621557 0.0 4.499999999999999
  endloop
endfacet
facet normal -0.9238795325112747 0.0 0.382683432365119
  outer loop
    vertex 59.63407417371093 0.0 4.25881904510252
    vertex 59.73397459621557 33.5 4.499999999999999
    vertex 59.63407417371093 33.5 4.25881904510252
  endloop
endfacet
facet normal -0.7933533402912477 0.0 0.6087614290087043
  outer loop
    vertex 59.892893218813455 33.5 4.707106781186546
    vertex 59.73397459621557 0.0 4.499999999999999
    vertex 59.892893218813455 0.0 4.707106781186546
  endloop
endfacet
facet normal -0.7933533402912477 0.0 0.6087614290087043
  outer loop
    vertex 59.73397459621557 0.0 4.499999999999999
    vertex 59.892893218813455 33.5 4.707106781186546
    vertex 59.73397459621557 33.5 4.499999999999999
  endloop
endfacet
facet normal -0.6087614290087144 0.0 0.7933533402912402
  outer loop
    vertex 60.1 0.0 4.866025403784437
    vertex 59.892893218813455 33.5 4.707106781186546
    vertex 59.892893218813455 0.0 4.707106781186546
  endloop
endfacet
facet normal -0.6087614290087144 0.0 0.7933533402912402
  outer loop
    vertex 59.892893218813455 33.5 4.707106781186546
    vertex 60.1 0.0 4.866025403784437
    vertex 60.1 33.5 4.866025403784437
  endloop
endfacet
facet normal -0.38268343236509283 0.0 0.9238795325112855
  outer loop
    vertex 60.34118095489748 0.0 4.965925826289066
    vertex 60.1 33.5 4.866025403784437
    vertex 60.1 0.0 4.866025403784437
  endloop
endfacet
facet normal -0.38268343236509283 0.0 0.9238795325112855
  outer loop
    vertex 60.1 33.5 4.866025403784437
    vertex 60.34118095489748 0.0 4.965925826289066
    vertex 60.34118095489748 33.5 4.965925826289066
  endloop
endfacet
facet normal -0.13052619222005077 0.0 0.9914448613738106
  outer loop
    vertex 60.6 0.0 4.999999999999998
    vertex 60.34118095489748 33.5 4.965925826289066
    vertex 60.34118095489748 0.0 4.965925826289066
  endloop
endfacet
facet normal -0.13052619222005077 0.0 0.9914448613738106
  outer loop
    vertex 60.34118095489748 33.5 4.965925826289066
    vertex 60.6 0.0 4.999999999999998
    vertex 60.6 33.5 4.999999999999998
  endloop
endfacet
facet normal 0.13052619222005077 0.0 0.9914448613738106
  outer loop
    vertex 60.85881904510252 0.0 4.965925826289066
    vertex 60.6 33.5 4.999999999999998
    vertex 60.6 0.0 4.999999999999998
  endloop
endfacet
facet normal 0.13052619222005077 0.0 0.9914448613738106
  outer loop
    vertex 60.6 33.5 4.999999999999998
    vertex 60.85881904510252 0.0 4.965925826289066
    vertex 60.85881904510252 33.5 4.965925826289066
  endloop
endfacet
facet normal 0.38268343236509283 0.0 0.9238795325112855
  outer loop
    vertex 61.1 0.0 4.866025403784437
    vertex 60.85881904510252 33.5 4.965925826289066
    vertex 60.85881904510252 0.0 4.965925826289066
  endloop
endfacet
facet normal 0.38268343236509283 0.0 0.9238795325112855
  outer loop
    vertex 60.85881904510252 33.5 4.965925826289066
    vertex 61.1 0.0 4.866025403784437
    vertex 61.1 33.5 4.866025403784437
  endloop
endfacet
facet normal 0.6087614290087144 0.0 0.7933533402912402
  outer loop
    vertex 61.30710678118655 0.0 4.707106781186546
    vertex 61.1 33.5 4.866025403784437
    vertex 61.1 0.0 4.866025403784437
  endloop
endfacet
facet normal 0.6087614290087144 0.0 0.7933533402912402
  outer loop
    vertex 61.1 33.5 4.866025403784437
    vertex 61.30710678118655 0.0 4.707106781186546
    vertex 61.30710678118655 33.5 4.707106781186546
  endloop
endfacet
facet normal 0.7933533402912477 0.0 0.6087614290087043
  outer loop
    vertex 61.466025403784435 33.5 4.499999999999999
    vertex 61.30710678118655 0.0 4.707106781186546
    vertex 61.466025403784435 0.0 4.499999999999999
  endloop
endfacet
facet normal 0.7933533402912477 0.0 0.6087614290087043
  outer loop
    vertex 61.30710678118655 0.0 4.707106781186546
    vertex 61.466025403784435 33.5 4.499999999999999
    vertex 61.30710678118655 33.5 4.707106781186546
  endloop
endfacet
facet normal 0.9238795325112747 0.0 0.382683432365119
  outer loop
    vertex 61.565925826289075 33.5 4.25881904510252
    vertex 61.466025403784435 0.0 4.499999999999999
    vertex 61.565925826289075 0.0 4.25881904510252
  endloop
endfacet
facet normal 0.9238795325112747 0.0 0.382683432365119
  outer loop
    vertex 61.466025403784435 0.0 4.499999999999999
    vertex 61.565925826289075 33.5 4.25881904510252
    vertex 61.466025403784435 33.5 4.499999999999999
  endloop
endfacet
endsolid quiesce
