<?xml version="1.0" encoding="UTF-8" standalone="no"?>
<!-- Created with Inkscape (http://www.inkscape.org/) -->

<svg
   xmlns:dc="http://purl.org/dc/elements/1.1/"
   xmlns:cc="http://creativecommons.org/ns#"
   xmlns:rdf="http://www.w3.org/1999/02/22-rdf-syntax-ns#"
   xmlns:svg="http://www.w3.org/2000/svg"
   xmlns="http://www.w3.org/2000/svg"
   xmlns:sodipodi="http://sodipodi.sourceforge.net/DTD/sodipodi-0.dtd"
   xmlns:inkscape="http://www.inkscape.org/namespaces/inkscape"
   width="210mm"
   height="297mm"
   viewBox="0 0 744.09448819 1052.3622047"
   id="svg2"
   version="1.1"
   inkscape:version="0.91 r13725"
   sodipodi:docname="sven.svg">
  <defs
     id="defs4" />
  <sodipodi:namedview
     id="base"
     pagecolor="#ffffff"
     bordercolor="#666666"
     borderopacity="1.0"
     inkscape:pageopacity="0.0"
     inkscape:pageshadow="2"
     inkscape:zoom="0.98994949"
     inkscape:cx="44.765946"
     inkscape:cy="101.16057"
     inkscape:document-units="px"
     inkscape:current-layer="layer1"
     showgrid="false"
     inkscape:window-width="1440"
     inkscape:window-height="853"
     inkscape:window-x="-4"
     inkscape:window-y="-4"
     inkscape:window-maximized="1" />
  <metadata
     id="metadata7">
    <rdf:RDF>
      <cc:Work
         rdf:about="">
        <dc:format>image/svg+xml</dc:format>
        <dc:type
           rdf:resource="http://purl.org/dc/dcmitype/StillImage" />
        <dc:title></dc:title>
      </cc:Work>
    </rdf:RDF>
  </metadata>
  <g
     inkscape:label="Calque 1"
     inkscape:groupmode="layer"
     id="layer1">
    <path
       style="fill:#000000"
       d="m 56.921439,1042.3512 c -3.87898,0.1838 -1.64661,-4.1139 -5.75534,-3.1642 -4.57838,-1.0539 0.50886,-4.7689 -1.57644,-6.3801 3.15227,-2.2576 7.01107,-7.3734 7.07819,-12.471 -1.9912,-1.4628 -1.57743,-5.0692 -4.43945,-3.8465 -3.24296,-1.7839 -1.51111,-8.6463 -2.79582,-9.2835 -0.42624,4.2996 -4.03614,5.1643 -3.03843,0.2008 0.16662,-2.9335 3.17633,-9.84997 -1.48279,-4.4454 -5.67037,4.0805 -0.14731,-4.79189 1.93002,-6.36248 -6.90487,-0.0465 2.79709,-4.49885 3.43408,-4.39092 -4.75509,-1.57338 -10.30444,-8.94871 -4.44208,-12.60067 3.39504,-2.32432 3.8544,-10.4008 -1.81691,-8.4154 -5.62763,-2.41508 -6.41589,-9.91425 -5.21057,-15.23005 3.79534,-5.65513 -6.01499,-2.4865 -8.70814,-5.95294 -6.96645,-4.51603 -12.7047,-12.68567 -10.896,-21.3489 -0.007,-2.75932 2.66749,-12.21889 5.38677,-6.43825 0.27418,6.03997 -0.73428,12.76098 3.33064,17.87369 2.45597,4.58937 10.85228,7.6471 13.02582,1.22824 2.65922,-5.25601 -3.89459,-10.51857 -1.80741,-14.94965 6.29233,0.60345 6.87242,8.50003 5.739,13.39048 -2.81785,4.0954 3.49303,12.21326 5.94166,6.01918 -0.90475,-2.99139 1.65457,-8.2486 3.6667,-3.26474 -0.29687,4.17547 -3.03547,9.91861 2.82512,11.66568 2.4839,-0.56254 9.80936,-3.95039 3.44479,-3.99474 -3.03594,-4.725 11.70644,-1.02541 8.70069,-3.3514 -0.51958,-1.01172 6.73207,1.79765 8.36004,3.15935 2.30571,0.0911 -3.47307,-9.47992 2.56049,-8.50559 -0.22632,3.93343 2.3618,11.04876 6.45771,5.33118 2.21684,-5.92825 -2.98827,-13.16415 2.00031,-18.32023 5.23774,-4.16281 4.66099,4.06957 2.75846,7.00579 -3.16064,6.0521 3.79825,14.07292 9.177751,7.94612 4.8253,-4.03156 7.36067,-10.42202 6.42729,-16.66038 -1.48878,-3.36866 2.68279,-8.78547 4.14755,-3.17832 2.56289,6.98896 2.47535,15.53952 -2.85248,21.26983 -3.99556,5.22877 -10.115081,8.94042 -16.847471,8.73503 -3.61332,-0.31154 -10.30316,1.10136 -5.35961,5.19431 1.68899,3.45994 2.99698,8.1478 7.53787,4.57909 7.667951,-3.85163 5.73598,7.93929 2.63663,11.27854 -2.86669,5.42807 -9.67415,4.44649 -11.42618,10.60626 -1.60107,2.15608 -5.02475,3.24172 -1.48005,4.58657 -1.0951,2.27994 -3.93145,3.48437 0.3942,2.98952 0.60094,2.84237 6.05947,3.27321 7.95553,7.1207 -0.22734,-3.77279 1.88463,-3.59531 3.66015,-3.67191 2.00485,-2.43786 10.641221,-5.24777 9.844611,-0.14562 -1.3615,2.86563 -1.69491,3.20205 0.75471,4.77993 -0.3781,3.2332 -3.85405,4.2287 -1.75219,7.2597 -0.695,5.066 -9.550561,0.7782 -6.151521,6.1266 0.57488,3.6885 0.57331,6.2942 4.203191,7.6105 1.63233,4.8763 5.36745,9.9159 6.29264,14.3395 -2.5763,4.9231 -8.02189,2.8712 -11.644131,3.3074 -5.29532,1.4671 -6.9876,-3.9404 -5.50069,-8.0559 -0.31795,-4.6513 -5.22077,-7.5628 -8.82074,-9.2325 -2.54353,-0.048 -4.65046,-0.1035 -5.55666,1.7629 -4.67551,-1.1742 2.23177,7.2708 -0.13334,10.3242 -3.15198,5.0236 -10.56362,3.2046 -14.77654,7.2341 -1.72756,0.5807 -3.58001,0.9067 -5.40163,0.7361 z m 3.23621,-1.698 c 2.56117,-0.458 8.43564,-2.6845 6.70689,-5.0853 -2.00198,3.8626 -9.92819,3.3394 -8.55584,0.3634 -2.41428,0.903 -7.36111,-2.3482 -7.37642,1.4905 2.08482,0.9703 8.99405,-0.3939 4.39747,2.9788 1.37286,0.8233 3.3091,0.3997 4.8279,0.2526 z m 37.53378,-2.3051 c 1.92234,-1.1783 7.817941,2.2 8.489451,-2.3291 -3.84892,0.2064 -7.763801,1.2731 -10.914401,-0.1141 -3.64571,3.2474 0.0156,3.0892 2.42495,2.4432 z m -36.63188,-1.2919 c 2.84734,0.061 5.99062,-3.1741 6.89588,-4.2075 -0.0609,2.1055 -0.0564,6.5908 1.15075,1.9062 1.65549,-7.4066 0.5827,-15.1708 -0.73511,-22.469 0.89091,2.5594 2.69692,5.2633 1.5935,0.491 -0.70097,-4.949 1.73703,3.5731 0.17366,4.7538 -0.38441,2.9289 3.15739,5.462 3.63061,4.223 1.55675,1.0403 5.16051,2.148 1.68567,-0.2101 -4.33083,-3.7523 10.91585,3.1198 5.29975,-2.8784 -1.1052,-3.1699 -1.42145,-11.1526 -0.99062,-11.5586 2.42712,4.5554 0.37808,10.8396 5.18498,14.1797 4.01092,2.9079 9.601,6.2954 7.98323,12.2207 -1.81565,3.4349 1.10265,3.6452 1.55403,0.33 1.74395,0.4285 5.20329,3.6336 2.11916,-0.3494 4.168391,2.2003 7.460681,2.587 5.363641,-0.5293 1.97626,0.906 8.48838,3.9659 4.10767,0.02 -3.44613,-2.7666 -2.84548,-10.456 -7.083091,-11.1166 -1.71029,1.1396 -1.40659,-7.4768 -3.0843,-9.9383 -2.3288,-5.4529 -4.60385,-11.7099 -9.77134,-15.09395 -2.31884,-1.13068 -11.44143,-1.50329 -5.729,1.80219 3.63431,5.87966 -8.63958,-1.67222 -1.42936,1.15072 4.30718,0.41214 -6.48104,-4.69421 -0.35911,-4.45468 2.5744,-0.42852 4.86517,-2.02665 0.59788,-1.32907 -2.72292,0.69674 -4.986,0.0172 -1.15554,-1.22351 2.79901,-0.89699 4.72256,-3.97313 0.30065,-1.92283 -4.81915,2.38414 -10.13451,3.2665 -15.41154,3.90634 -3.5091,0.26398 -3.01513,3.00748 -5.21854,2.22089 1.77462,-1.86271 5.63649,-2.7744 0.78955,-2.76754 -3.7515,-1.28955 -10.49497,-0.86606 -11.99194,1.26711 2.35174,-0.50863 9.30578,-2.36501 3.34955,0.53814 -2.25768,0.89107 -8.25559,8.32229 -3.55355,4.29489 1.77871,-1.55603 9.61978,-6.83395 4.38508,-1.73164 -1.97596,2.13874 -4.41626,9.89334 -2.90122,10.03584 0.71866,-2.2943 3.51657,-7.2652 4.55536,-6.7982 -1.16927,4.168 -2.57855,10.1484 0.65315,13.3999 0.64829,-2.4066 2.1485,-10.9156 1.9966,-3.8895 -0.57759,2.5346 1.98636,8.2305 2.18927,2.745 0.96166,-1.1406 1.28717,6.2718 0.72134,8.4266 -0.1434,4.639 -3.81897,9.8533 -7.07129,11.0777 3.13138,2.5927 11.15936,0.062 11.6647,0.5122 -1.02245,0.9758 -6.31069,3.8984 -1.46011,2.9662 z m 10.66373,-23.7234 c 1.36364,1.045 -1.31802,-5.3531 0.9377,-1.2835 0.53338,0.5988 -0.0558,2.3318 -0.9377,1.2835 z m 19.4415,-0.1561 c -0.66792,-0.5803 0.61429,-0.1828 0,0 z m -0.18185,-0.7051 c 0.0801,-0.6812 0.30139,0.967 0,0 z m -0.15198,-0.3837 c -0.0896,-0.622 0.32274,0.2709 2e-5,0 l -2e-5,0 z m -30.64042,-0.07 c -0.0474,-0.7792 0.80043,-1.2821 0,0 z m 30.47246,-0.4282 c 0.32961,-0.3846 0.20131,0.5343 0,0 z m -0.0977,-0.427 c 0.15305,-0.2826 0.048,0.4579 0,0 z m 0.47233,-0.7983 c -1.60037,-0.4665 -2.40026,-2.3456 -0.26873,-0.7049 -2.49975,-4.0126 2.07202,1.3362 0.26873,0.7049 z m -32.97148,-3.2665 c 0.0554,-4.9573 0.70885,-2.0568 0.339,0.1555 l -0.33902,-0.1555 2e-5,0 z m 14.49176,-1.4505 c -0.0132,-1.3135 2.22442,-1.6567 2.53467,-4.2794 0.0262,1.1158 -0.99015,5.1058 -2.53467,4.2794 z m -14.04486,-2.0093 c 0.26309,-0.5591 0.26305,0.559 0,0 z m -1.3307,-0.6968 c 0.0133,-0.7997 0.49387,0.6372 0,0 z m 0.90626,-0.5718 c 0.69358,-1.3087 0.74309,-0.6521 0,0 z m 13.028,34.3855 c 2.9757,-1.0368 -3.90881,-0.2241 0,-2e-4 l 0,2e-4 z m 3.97407,-2.1561 c 1.69053,-3.3071 0.0591,-8.4626 -1.87583,-11.3523 -4.36025,-2.6342 -0.34294,7.9204 -2.23794,10.9658 1.22652,0.7585 2.76589,0.9074 4.11377,0.3865 z m 26.023001,-24.7959 c 4.07354,-1.8208 0.53542,-3.2277 -2.025801,-2.3336 1.652081,-0.8844 9.503141,-7.327 3.431931,-5.745 -5.156401,2.9571 7.28442,-10.84248 -1.79278,-6.16838 -4.311311,1.20136 -7.163561,8.21688 -7.472231,2.82724 -1.14392,2.09724 1.35032,8.25574 1.65693,3.26764 0.80785,-3.30578 1.58337,1.5273 2.78994,-2.06506 1.24956,-2.02828 -1.42012,5.77516 -2.25732,4.94386 -0.83203,-3.3507 0.61587,9.7462 5.669461,5.2733 l -1.3e-4,0 z M 65.003539,992.43952 c 7.73229,-0.56741 16.44343,-3.46906 19.99457,-10.94962 1.8898,-2.27231 -6.56835,-7.45496 -3.73683,-7.225 3.06877,3.9184 9.84583,5.62561 12.83637,0.69427 4.44375,-5.59979 -4.73449,1.95197 -7.49132,-1.74869 -2.13313,-0.70714 -4.74694,-6.26337 -3.26462,-1.35078 -2.49592,-3.86736 -2.59507,-0.10078 -1.06105,2.29596 -3.7346,-2.82855 1.10208,-7.25358 -2.57967,-10.94001 3.25619,1.94897 10.09814,3.11842 5.44622,-2.48389 -1.19738,-3.21272 -3.25958,-4.63593 -3.90718,-0.35965 -0.37759,2.46264 -4.79397,-3.23877 -3.57509,-5.15342 -1.70799,1.15834 -9.52116,0.98708 -3.69902,-0.28971 4.52633,-0.53258 4.65409,-4.23593 0.32031,-5.30737 -3.53406,-1.13479 -8.31028,-1.06471 -11.36809,-0.36074 2.31628,0.84529 7.35115,-0.0358 8.21715,1.18895 -3.51835,-0.3478 -11.65163,3.84785 -10.38443,5.11302 2.49898,-0.94037 6.12099,-2.80773 8.14253,-2.88793 -2.14055,0.97211 -7.52276,6.29925 -6.15242,6.0142 1.64011,-1.7599 6.05853,-4.07305 2.29368,-0.60493 -1.99348,1.92162 -2.60836,3.79446 -2.02669,3.98505 -1.22041,2.96972 -2.19909,0.80591 -2.12639,-0.23655 -4.34831,-0.7714 6.29806,-8.28157 0.0168,-4.82015 -3.36581,2.04395 -2.92546,-3.15472 -5.98096,0.72407 -4.92113,1.70838 2.36621,3.40923 0.5858,5.0214 -1.14651,-2.3615 -7.08105,-1.73655 -2.71994,0.25911 4.55964,5.36081 2.11745,14.33355 -4.40417,16.87665 -6.75303,2.68789 -0.87951,10.31103 4.08442,11.02988 4.01675,1.3846 8.31245,1.83288 12.54001,1.51588 z m -3.48294,-2.46392 c -1.78902,-2.57096 2.51028,1.72912 0,0 z m -4.54393,-3.89424 c -1.32099,-5.69416 7.69068,-3.59513 4.96732,-0.68826 -2.39305,-2.37456 -1.98486,-3.79023 -4.96732,0.68826 z m -6.01191,-0.64017 c -1.15679,-2.76696 -4.40021,-5.48238 -3.11237,-0.3979 -2.43263,0.80578 -0.61498,-7.74904 2.05419,-2.72867 0.43794,0.2432 2.13296,4.17735 1.05818,3.12657 z m 21.55419,-0.51802 c 1.03126,-1.45518 5.52235,-2.6018 1.70806,-0.70839 -0.58645,-0.0723 -1.07402,0.96483 -1.70806,0.70839 z m 6.15412,-0.76145 c 0.91153,-0.96152 0.54095,0.30125 0,0 z m -2.38113,-0.14958 c 0.95381,-0.61656 -0.44484,0.58671 0,0 z m -4.94015,-2.28262 c 2.54488,-0.96685 4.6716,-3.07154 0.66403,-1.05491 -5.65048,1.79859 -9.09812,-5.38628 -6.91839,-9.91718 0.28433,-3.4452 8.92983,-6.0899 1.99017,-5.16248 -7.81704,-0.61564 -5.56294,9.05271 -4.53664,13.77482 -0.67785,1.95683 -2.28936,-6.07223 -2.30897,-8.02608 -1.68527,-5.96656 4.60751,-8.20707 9.36025,-7.62019 5.60602,-0.29509 10.08033,6.91771 8.41403,12.06015 -0.86712,2.86789 -3.2647,6.34655 -6.66448,5.94587 z m 0.84884,-1.93708 c 2.91562,-0.90058 4.86997,-3.74578 0.60616,-2.3207 -4.47483,-1.62254 -3.03695,-8.88391 1.40985,-9.59936 -4.21267,-5.24509 -10.90254,3.69085 -8.59519,8.33662 0.78144,2.85903 3.64551,4.73775 6.57918,3.58344 z m -16.2872,-2.06628 c -5.19904,-1.06484 4.79842,0.49606 0,0 z m 1.81704,-0.39876 c -2.24498,-1.14156 2.72742,0.63548 0,0 z m 12.73907,-15.51418 c -2.28544,0.0753 -5.39137,-2.42357 -1.33773,-1.716 1.56364,0.28075 5.08091,3.49957 1.33773,1.716 z m -20.33693,15.45688 c 2.54693,-2.47951 -2.0971,-1.60777 -0.76418,0.37536 l 0.76418,-0.37536 z m 2.42882,-1.4396 c 1.50584,-2.3211 -1.73776,-6.05372 1.33784,-8.40257 -1.58937,-6.35266 -4.28175,3.45957 -3.25336,5.68196 0.0697,0.72182 0.63081,3.71388 1.91552,2.72061 z m 39.48094,-2.8012 c 4.43084,0.46039 8.535951,-10.34889 2.59958,-8.1426 -4.24032,2.30956 -10.23173,1.93286 -13.81629,-0.0628 2.36391,4.08179 5.4438,10.08608 11.21671,8.2054 z m -42.16108,-3.83888 c 0.0755,-2.24441 4.7818,-6.647 0.28827,-5.63435 -1.15785,0.51156 -1.08128,8.08646 -0.28827,5.63435 z m -3.32326,0.5539 c -0.87502,-1.09303 -6.59962,-7.44752 -6.55804,-7.75608 0.36644,3.36705 2.21154,8.62147 6.55804,7.75608 z m 0.49559,-2.64549 c -0.17773,-3.02126 3.08934,-5.83797 -1.55793,-6.5283 -2.78289,-1.00344 -4.19338,-10.42724 -5.16527,-3.54441 -0.84326,3.6193 4.6213,11.28459 6.7232,10.07271 z m 2.7973,-7.18279 c 1.93886,-2.93185 -3.13176,-6.98008 -6.17177,-6.91889 -2.13495,0.53819 3.81272,9.77741 6.17177,6.91889 z m 30.32109,-1.50523 c 2.12307,-6.21556 9.32734,-6.01641 14.68553,-6.41008 7.764901,-1.03981 14.034701,-7.72834 16.390301,-14.93657 0.99869,-4.9009 0.44589,-10.49685 -2.01965,-14.84498 -1.42114,4.87631 0.74145,10.92729 -2.05403,15.82702 -2.16364,5.12653 -7.900321,10.94089 -13.910371,8.46433 -5.06027,-2.59924 -4.01541,-9.47568 -2.46047,-13.93341 2.44412,-3.14167 0.0344,-5.47922 -2.02182,-1.5627 -2.56846,5.63089 2.70675,12.74002 -1.84923,17.76171 -5.01646,4.837 -7.6943,-3.32211 -7.74277,-5.5964 -0.43344,3.8845 3.07009,9.24241 -2.00189,11.71239 3.06073,-1.20035 -0.30118,3.66183 2.61076,0.11364 2.16713,-1.7296 -3.71375,5.03008 0.37364,3.40505 z m -27.22519,-1.16716 c 2.38026,-1.14935 -3.73177,-5.17016 0.58868,-2.46762 1.40711,2.9826 4.55322,-1.33136 0.35789,-1.50926 -4.72351,-1.70498 0.70367,-11.24667 -1.6519,-10.51687 2.01681,6.64684 -8.51418,9.46719 -9.01561,2.12278 -0.76415,-5.48111 2.79904,-12.13932 -2.20812,-16.46771 -2.96423,-0.99681 2.06756,5.72145 1.2842,8.06647 1.02131,4.44795 -1.55552,10.20993 -6.76856,9.76407 -7.92714,-1.08514 -12.51633,-9.79757 -12.30718,-17.23192 0.46583,-2.16928 0.35125,-11.59109 -1.80385,-4.96284 -2.06466,6.52851 -1.63,14.1835 3.22176,19.40744 3.68793,4.62537 9.05637,8.06297 15.13444,7.95916 4.89421,-0.25484 10.48958,1.34034 12.26154,6.44636 l 0.90671,-0.61011 0,5e-5 z"
       id="path3358"
       inkscape:connector-curvature="0" />
  </g>
</svg>
